<svg id="Layer_1" data-name="Layer 1" xmlns="http://www.w3.org/2000/svg" viewBox="0 0 400 400"><defs><style>.cls-1{fill:#fefefe;}.cls-2{fill:#f35e5e;}.cls-3{fill:#28498f;}.cls-4{fill:#fdb1a5;}</style></defs><title>Artboard 1 copy 10</title><g id="fATeMT"><path class="cls-1" d="M97.88,46.36C97.2,45.17,96,45,94.83,45a3.72,3.72,0,0,0-3.5,2.22c-2.54,4.77-2.19,9.69-.81,14.64.31,1.1.44,1.75-.56,2.63a5.53,5.53,0,0,0-1.11,6.72c-2.08,1.49-1.84,3.51-1.27,5.6-1.66,0-3.36-.73-5,0C80.05,77.83,79.3,80,79.26,82.6c0,.74.49,1.66-.62,2.21-3.6,1.75-4.59,4.88-4.19,8.56a7.77,7.77,0,0,0,4.6,6.7,1.67,1.67,0,0,1,1.15,2.07,5.19,5.19,0,0,0,2.78,5.7,1.58,1.58,0,0,1,.84,1.89c-.16,1.34-.56,2.9.29,4a5.82,5.82,0,0,1,1.23,5.83c-.72,2.44,1.5,3.64,3.19,4.81,1,.7,1.53,1.26,1.14,2.64s-.6,3.09.63,4c2,1.54,1.94,3.48,2,5.64,0,2.8-.47,5.19-3,6.84a4,4,0,0,0-1.74,3.33,1.3,1.3,0,0,1-.8,1.37c-2.49,1.07-3.33,3.05-3.54,5.71s.15,5.76-1.42,8.13q-3.21,4.86-6.37,9.75c-2,3.05-4.07,6.12-5.24,9.5-2.19,6.34-5.51,12.13-8.26,18.18a206.71,206.71,0,0,0-10.23,28.87c-1.51,5.33-2.77,10.74-4,16.14-.4,1.7-1.46,2.12-2.94,2.15-1.88,0-3.77,0-5.65.12a4.25,4.25,0,0,0-3.63,1.91,2,2,0,0,1-2.05,1,20.33,20.33,0,0,0-2.34.08c-2.79.24-4.23,1.92-3.91,4.7A14.13,14.13,0,0,0,30,261.44c1.54,2.05,1.29,3.31-.8,4a7.52,7.52,0,0,0-4.69,9.28c.77,2.69,3,4.18,4.73,6,1.16,1.22,2.81.6,4.27.67a19.09,19.09,0,0,0,4.07-.08c1-.17,1.71.18.91,1.21-2.28,2.94-1.63,6.14-.94,9.32a4.89,4.89,0,0,0,5.69,3.87c3.09-.63,6.27-1.49,8.62-3.71,3.92-3.7,8.56-6.4,12.77-9.69,1.56-1.22,2.43-.89,3.64.74,1.81,2.45,3.63,4.9,5.63,7.18a6.62,6.62,0,0,0,4.81,2.63c5.56.17,5.83-.09,5.83-5.64,0-3,.14-6.05-1.79-8.74a3.07,3.07,0,0,1,0-2.65c1-2.35,2.14-4.63,3-7a40.8,40.8,0,0,1,7.13-13.19,54.31,54.31,0,0,1,8.36-7.82c.6-.46,1.4-1.11,1.75.21a38.44,38.44,0,0,0,3.36,7.85c2.39,4.65,4.77,9.35,8.62,13.05a1.93,1.93,0,0,1,.83,1.67c-.81,5.48-.22,11-.62,16.5-1.71.31-3.61.34-3.91,2.69-1.19,3.38-.52,5.67,2.15,7.36l-1.23,1.53c-1.87,2.16-1.7,3.4.7,5.06a2.58,2.58,0,0,1-.57,1.95,12.71,12.71,0,0,0-1.7,3.59,3.57,3.57,0,0,0,1,4.06c1.23,1.05,2.64.74,4,.07,0,1.74.1,3.49,0,5.23-.14,2.53.16,4.89,1.85,6.89,1.3,2.33,2.65,2.81,4.84,1.57a1.64,1.64,0,0,1,1.77,0,29.09,29.09,0,0,1,6.17,4.64c.55.47.63.82.23,1.43-2,3.17-4.16,6.42-7.48,8.18-4.45,2.36-6.35,6.33-8.24,10.54a11.45,11.45,0,0,0-.35,8.28c.21.74.5,1.16,1.3,1.1.8,3.45,1.11,7.14,4.56,9.28.5,1.48.8,3.2,3.08,2.37,3,6.95,11,8.89,17.79,7.64,2.77-.51,5.46-1.34,8.33-1.31,2.64,0,5.31.39,7.92-.39,2.09,1,3.72-.46,5.51-1a63.29,63.29,0,0,0,16.36-8.33c7.27-4.92,13.22-11.41,19.89-17.05,3.89-3.29,7.07-7.37,10.86-10.82,1.79-1.63,3.46-3.59,3.5-6.28,0-2.91,0-5.83,0-8.74-.08-3.65-3.16-7-6.66-8-2.45-.74-4.87-.4-7.28-.69-3.59-.44-4.63-1-5.25-3.84a21.77,21.77,0,0,1,0-10.09c1.18-4.87,3.49-9.13,6-13.35a3.3,3.3,0,0,1,2-1.3c3.48-1.2,7.21-1.35,10.63-2.85a36.77,36.77,0,0,1,7.24-2.68c.93-.2,1.83-.42,2.53.37s-.2,1.43-.42,2.12c-.09.29-.43.5-.53.79-1.26,3.41-1.09,7.28,3.51,8.49a6.65,6.65,0,0,0,4.55-.25c1.15.92,1.23,2.68,2.64,3.4.19.61.3,1.32.88,1.68a13,13,0,0,0,8.47,2.16c3.27-.37,5.47-2.45,7.6-4.65,1.64,1.54,3.72,1.53,5.77,1.62,1,.68,2.16.27,3.21.15,5.25-.62,8.82-4.3,9.09-9.45.07-1.34.78-1.17,1.62-1.23,5-.36,9.1-5.63,8.14-10.5a5,5,0,0,0-.92-3.46c-1.09-1.41-2.38-2.66-3.59-4a7.58,7.58,0,0,0,4.19-4.59c1.27-3.32-.06-8.14-4.76-8.54l-1.25-.59a16.3,16.3,0,0,1-.1-2.31,14.55,14.55,0,0,1,11-12.77,39,39,0,0,1,14-.64c4.3.44,8.71,1,12.64,3.17,2,1.8,2.58,4.62,4.49,6.5.57,1.37,1.19,2.73,1.71,4.12,2.59,7,7.66,9.13,12.69,8.53a23.14,23.14,0,0,0,10.8-4.11c1.37-1,2.76-1.94,4.15-2.9a62.83,62.83,0,0,0,19.15-20.82c2.54-4.41,4.13-9.19,6.4-13.7a57.67,57.67,0,0,0,2.64-5.57c1.19-3.11,2.12-6.32,3-9.53a114.06,114.06,0,0,0,3.36-16.92,84,84,0,0,0,.79-17.44c-.33-4.09-.67-8.25-2.8-12-2.83-5-6.16-6.32-11.45-4.32-.92.35-1.24.15-1.58-.65a7.62,7.62,0,0,0-5.23-4.3c-4.09-1-8.18-.47-11.43,2.63-.91.87-1.55,1.14-2.57.33a4.88,4.88,0,0,0-3.14-.75c-1.87,0-3.5.92-5.33,1A8.19,8.19,0,0,0,326,162a54.27,54.27,0,0,0-.57,10c.11,2.59-.35,5.16,0,7.76a4.18,4.18,0,0,1-.94,2.9c-.85,1.14-1.73,2.27-2.47,3.48a1.63,1.63,0,0,1-1.82.76,1.61,1.61,0,0,1-1.48-1.55c-.17-1.21-.27-2.44-.5-3.64s.06-2.59-1.11-3.39a3.79,3.79,0,0,1-1.76-4.42,14.83,14.83,0,0,0,.15-2.32,3.43,3.43,0,0,0-2-3.43c-1.7-1-3.5-.77-5.31-.66-1.36-3.35-3-4.44-6.57-4.43h-4c-.87-1.61-2.47-.7-3.7-1.06a3.43,3.43,0,0,0-3.88-2.45c-1.6.1-3.21.13-4.82.19-2.92-.79-5.82-1.81-8.84-.28-1.21.61-2.53,1-3.8,1.48-.41.15-.81.5-1.23,0-1-1.12-2.11-2.2-3.05-3.39-1.95-2.51-1.87-3.06.89-4.59,5.19-2.89,9.17-7.09,12.89-11.6A99.66,99.66,0,0,0,291.07,128a60.71,60.71,0,0,0,6.43-14.89c.93-3.49,1.9-7,2.85-10.46,1.26-4.67,2.55-9.33,2.48-14.24q-.07-5.44-.09-10.9c0-7.3-.68-14.44-4.26-21.05-.61-1.12-1.45-2.55-.83-4a9.23,9.23,0,0,0,.62-5c-1.49-10-4.84-19.08-14-24.76-3.32-2.05-6.92-3.77-10.78-4.11-5.77-.5-11.6-1.16-17.35.59-4.46,1.35-8.92,2.57-12.94,5.14a36.47,36.47,0,0,0-10.12,10.33c-3.31,4.74-6,9.6-6.56,15.54a52.43,52.43,0,0,0,2.21,20.12c2.57,8.7,9.34,13.94,15.94,19.3a11.91,11.91,0,0,0,3.85,1.84c2.19.74,2.56,1.27,1.77,3.47a43.4,43.4,0,0,1-3,7.14c-1,1.68-1.74,3.7-3.55,4.76-2,1.2-4.17,2.29-6.31,3.34a19.71,19.71,0,0,1-9.7,2.32c-4.17-.2-7.66-2.29-11.16-4.2a3.09,3.09,0,0,1-1.73-3.38c.27-1.09-.53-4.6-1.5-4.92-2.61-.85-2.38-2.81-2.06-4.74.49-2.9-.45-5-3.17-6.13-1-.45-1.12-1.08-.88-2.14.46-2,.87-4.38-1-5.8s-1.86-2.8-1.27-4.62a4.21,4.21,0,0,0,.21-.75c.5-3.57,1.44-7.15-.27-10.67-.31-.63.13-1.1.35-1.63,1.44-3.45,3.19-6.81,2.76-10.76-.36-3.31-3.14-7.66-6.86-7.49-1.49.06-2.64-.1-2.92-1.91a5,5,0,0,0-1-1.65c-1.19-1.84-2.66-3-5-2.2-1.76.6-2.57-.21-3.2-1.88-1.34-3.56-4.17-4.43-7.26-2.45-.36.23-.65.78-1.16.47-1.46-.87-3-.45-4.57-.51-2.61-.1-4.78-2.59-5-5.2-.17-1.69.78-3.91-1.53-5-1.66-1.74-2.44-1.81-4.33-.37A6.56,6.56,0,0,0,163,26.78c-.93,1.69-2.14,2.16-4,1.33-2.25-1-3.39-.46-4.46,1.78a21.77,21.77,0,0,0-3.86-.11c-1.35.2-1.44-.3-1.24-1.35a5,5,0,0,0,.08-2.49c-.13-.42-.33-1-.66-1.12-.48-.19-.72.39-1,.77a5.76,5.76,0,0,0-1.2,3.62c.2,2-1.4,2.21-2.58,2.47s-.68-1.19-1.09-1.79a6.63,6.63,0,0,1-.47-1.27c-.15-.36-.33-.76-.75-.81s-.74.42-.93.83a5.65,5.65,0,0,0-.44,4.15,3.26,3.26,0,0,1-.54,2.89c-1.29,2-3.16,3.75-3.42,6.35a11.44,11.44,0,0,1-1.08,3.5,8.72,8.72,0,0,0-1.73-1.33c-4-1.57-8.05-3.3-12.47-3.2-2.66.07-5.6-.2-6.91,3.09-.86-.92-.58-2.34-1.73-3.12l-.25,1.2c-1.75-2.48-2.86-2.88-5.7-2.06-2.59.76-3.28,1.6-3.39,4.16-.17.6-.65.55-1.09.48A4.37,4.37,0,0,0,97.88,46.36Z"/><path class="cls-2" d="M297.46,163.09h4c3.58,0,5.21,1.08,6.57,4.43-1.55.42-3,1.17-4.67,1.23a3.06,3.06,0,0,0-2.29,1.33,1.33,1.33,0,0,0-.26.89c.07.42.52.39.8.3,1.92-.64,3.85.3,5.78,0a3.51,3.51,0,0,1,4.09,2c.77,1.38,1.23,2.65.44,4s-2.07,1.27-3.39.56a1.17,1.17,0,0,0-1.68.51,1.19,1.19,0,0,0,.76,1.72,11.68,11.68,0,0,1,2.69,1c1.33,1.06,4.06.34,3.92,3.36-.18,3.61.42,4.22,3.94,5.52-1.25-.29-1.37,1.3-2.55,1.38a30.49,30.49,0,0,0-4.36.92c-.55.13-1.25.18-1.34.9a1.22,1.22,0,0,0,1.16,1.34c2.63.36,5.32.43,7.64-1.06,1.8-1.15,3.39-2.61,5.11-4v4.22c2-3.53,4.5-6.77,5.44-10.72,1.37-5.81,1.3-11.81,2-17.72.54-4.51,1-5.3,5.49-5.5-1,1.21-1.37,2.89-3.19,3.42-.82.24-.82,1.25-.7,2.05a1.55,1.55,0,0,0,1.55,1.46c1.47,0,1.88,1,1.95,2.15a6.08,6.08,0,0,1-.15,2.7,1.94,1.94,0,0,1-.54-.26c-1.12-1.13-2.23-1.22-3.3,0a1.79,1.79,0,0,0,.26,2.73c1.19,1.1,2.27.74,3.12-.42.73-1,1-.4,1.25.27a24.84,24.84,0,0,1,1.1,6.46c.27,3.59,1.55,7.06,1.26,10.71-1.25.37-.62,1.42-.63,2.1-.15,8.5-2.86,16.31-6.31,24-1.15,2.56-2.89,4.92-3.07,7.86a29.35,29.35,0,0,1-3.33,4.57c0,.12,0,.19-.14.21l0,.06c-2.35,2.29-4.7,4.57-7,6.87a4.83,4.83,0,0,0-1.51,2.43,30.75,30.75,0,0,0-1,8.21c.05.7-.22,1.61.84,1.89a26.58,26.58,0,0,0,.55,7.49c-2.12-2-3.13-4.74-4.7-7.64l-.14,2.2c-1.91-1.88-2.47-4.7-4.49-6.5.86-.91.08-1.53-.4-2.18-2-2.63-4.9-3.33-7.83-4.06-1.72-.43-3.49.25-5.08.08-3.29-.36-6.58-.09-9.86-.52a18.37,18.37,0,0,0-8.64.69,14.35,14.35,0,0,0-9.83,12.93c-.23,2.48,0,4.79,2.16,6.45.43.32.63,1.07,1.4.7s.44-1,.49-1.54l1.25.59c-.64,1-.05,1.65.59,2.18,1.81,1.48,1.37,5.1.16,6.6s-2.27,1.62-5.16.42c-.69-.29-1.58-.89-2,.14s.69,1.22,1.33,1.59c.89.51,2.22.19,2.8,1.1a2.43,2.43,0,0,0,2.82,1.1c1.21,1.32,2.5,2.57,3.59,4a5,5,0,0,1,.92,3.46c-1.11.08-1.21,1.06-1.51,1.79-.89,2.21-2.69,3.63-4.41,5.08-1.29,1.08-3,.64-4.51.61-1.23,0-1.12-1.27-1.65-1.93s-.89-1.41-1.64-1-.14,1.25.1,1.86a7.32,7.32,0,0,1,1,2.91c-.09,4.43-1.43,8-6.14,9.46a19.83,19.83,0,0,0-2.13.92c-.61.26-1.23.49-1.14,1.34-2.05-.09-4.13-.08-5.77-1.62.36-2.28-.69-4.4-.73-6.64a.76.76,0,0,0-.76-.74c-.42.05-.63.47-.69.86a17.73,17.73,0,0,0-.22,2.3,4.69,4.69,0,0,1-1,2.86c-2.41,3.11-8,4.24-11.48,2.27-.68-.38-1.34-.9-2.07-.1-1.41-.72-1.49-2.48-2.64-3.4.37-.74,1.36-1.5,1-2.2s-1.37.13-2.11.14c-1.48,0-3.07.23-4-1.27-.72-1.12,0-3.66,1.31-4.89a3.26,3.26,0,0,0,.78-4.07c-.79-1.47-.27-2.28.88-3,2.84-1.89,5.6-3.93,8.53-5.64,6.46-3.78,12.78-7.7,17.45-13.74,1.94-2.5,4.07-4.88,5.82-7.51a72.36,72.36,0,0,0,3.72-7c.22-.42.35-.94-.11-1.23s-.85.14-1.09.52a24.17,24.17,0,0,1-1.67,2.83,95.35,95.35,0,0,1-13,13.24,75.15,75.15,0,0,1-10.63,7.45c-4.65,2.68-9.66,4.62-14.55,6.83-6.6,3-13.06,6.05-20.14,7.9-4.1,1.07-8.2,2.27-12.3,3.4a20.61,20.61,0,0,1-4.95.85c-3.47.09-7-.14-10.39.91a26.7,26.7,0,0,1-5.32,1c-2.88.31-5.73.88-8.6,1.34,10.73,2.87,21.46,1.5,32.07,1.1a23.08,23.08,0,0,0-3.88,9.3,42.88,42.88,0,0,0,.92,16.49c.95,3.9,3.13,5.82,7.45,6.28-.31-1-1.36-1.5-1.53-2.79,3.45,1.61,7.09.28,10.46,1.55,1.6.6,2.69,1.21,3,3a58.13,58.13,0,0,1,.25,8.13,2.84,2.84,0,0,1-.6,1.81,39,39,0,0,1-3.29,4.32c-4.7,4.73-9,9.82-13.83,14.44-7,6.69-14,13.25-22.8,17.58-2.24,1.1-4.22,2.66-6.74,3.29a7.71,7.71,0,0,0-4.39,3.22c-2.61.78-5.28.41-7.92.39-2.87,0-5.56.8-8.33,1.31-6.77,1.25-14.74-.69-17.79-7.64a4.55,4.55,0,0,0,.8-3.69A12.31,12.31,0,0,1,126.6,358c1.93-2.51,4.6-4.11,7-6,.69-.55,1.76-1.12,1.33-2.13s-1.65-.74-2.44-.5a18.34,18.34,0,0,0-11.56,9.33c-2,3.85-1.92,7.81-.75,11.85-3.45-2.14-3.76-5.83-4.56-9.28a4.16,4.16,0,0,0,.65-2,26.46,26.46,0,0,1,2.16-6.95c.87.25,1.59,1.09,2.69.48,1.9-1.07,1.71-2.59-.59-4.27.58-2.35,2.57-3.17,4.44-4.12a6.2,6.2,0,0,0-.23,1.32,2.32,2.32,0,0,0,1.69,2.14c1,.35,1.74-.29,2.26-1.06,1-1.42,0-2.68-2.41-3.34a14.79,14.79,0,0,1,2.87-2.59c1.56-1,3.28-2.06,4-3.86,1-2.42,2.69-2.4,4.71-1.93a17.9,17.9,0,0,1,2.07.52,15.93,15.93,0,0,0,12.09-.54c.5-.2,1-.36.9-1a.86.86,0,0,0-1.08-.6c-2.79.43-5.3-.63-7.93-1.27a72,72,0,0,1-13.53-5c-2.84-1.34-6.23-3.34-4.91-7.79.15-.51.11-1.1-.58-1.21s-.9.4-1.07.91c-.95,2.82-2.26,5.25-5.65,5.64-.29,0-.52.52-.78.8-1.69-2-2-4.37-1.85-6.9.1-1.74,0-3.49,0-5.23.39-.22,1-.34,1.13-.65a16.85,16.85,0,0,0,1.34-5.94.87.87,0,0,0-.39-.61c-.34-.18-.58.11-.77.37a11.74,11.74,0,0,0-1.15,2.85c-.36,1-1,1.94-2.11,2-1,.05-1.38-.74-1.6-1.63s-.8-.72-1.41-.53a12.71,12.71,0,0,1,1.7-3.59,2.58,2.58,0,0,0,.57-1.95,2,2,0,0,0,1.52-1.73c-2-.27-1.22-2.4-2.22-3.33l1.23-1.53c2.25-.1,2.4-.27,1.73-2,1.14-.39,2.17-1,2.26-2.3a2.06,2.06,0,0,0-1.35-1.92c-1.75-.8-2.32.69-3.16,1.65-.52-.51-.33-1.17-.34-1.78,0-.88-.36-1.32-1.29-1,.3-2.35,2.2-2.38,3.91-2.69.84,1.22,1.57.7,2-.27a20.59,20.59,0,0,0,2-7c.13-2,.25-3.95.4-6.17,1.61,1,2.78,2.26,4.35,2.86a97.7,97.7,0,0,1,13.36,6.23c2.35,1.33,4.8,1,7.2,1.46.5.09,1.33.14,1.45-.6s-.69-.6-1.11-.82c-1.69-.83-3.47-1.42-5.18-2.2-2.72-1.24-4.68-3.49-7.23-4.89-8.11-4.42-13.85-11-18-19.17-.49-1-.57-2-1.12-3-1.24-2.21-2.17-4.59-3.27-6.88-1.23-2.57-1.6-5.41-2.67-8.06-1-2.43-2.08-4.84-2.89-7.34-1.83-5.66-3.22-11.46-5.46-17-.19-.47-.25-1.12-.89-1.13-.8,0-.82.75-.9,1.28a3.93,3.93,0,0,0,.06,1.53c1.21,4.7,1.9,9.51,3.61,14.11.86,2.34,1.63,4.76,2.4,7.16.26.8.19,1.22-.6,1.46-2.27.69-3.72,2.54-5.49,3.93-3.65,2.85-5.94,7-9.25,10.17a19.09,19.09,0,0,0-4.83,7.64c-1.59,4.71-3.46,9.34-4,14.34-.19,1.85-.49,3.8.31,5.57a14.23,14.23,0,0,1,1.13,7c0,.54.29,1.27-.43,1.55a2,2,0,0,1-2-.32,39.29,39.29,0,0,1-7.71-9.66c-1-1.7-2.4-2.58-4.29-2A18.67,18.67,0,0,0,61.6,279c-5.7,3.48-10.73,8.19-17.62,9.45-.73.13-1.6.93-2.12.08s-1.18-2.06-.43-3.28a47.09,47.09,0,0,1,2.84-4.63,23.19,23.19,0,0,0,3.21-4.85c.42-1,.94-2.28.08-2.9s-1.87.47-2.52,1.23a5.4,5.4,0,0,1-4.9,2.05C37.4,276,34.73,276,32,275c-2-.71-4.22-3.27-3.44-5.26a1.29,1.29,0,0,1,1-.84c1-.22,2-.47,3-.66,3.48-.64,7.07-1,9.9-3.46.46-.4,1.46-.52,1.24-1.27s-1.18-.59-1.87-.63a4.5,4.5,0,0,0-1.16,0c-3.53.71-5.52-1.54-7.33-3.92a8.85,8.85,0,0,1-1.76-5.38,8.12,8.12,0,0,1,6.11,1.09A13.51,13.51,0,0,0,47,256.23c-2.15-2.9-5.84-3.3-8.7-5.93,2.52,0,4.45.06,6.37,0,1.47-.07,2.54.13,2.61,1.94,0,.53.28,1.23,1,1.25s.94-.67,1-1.21c.72-3.61,2-7,3-10.58,1.89-6.71,3.7-13.45,6-20,1.61-4.58,3.07-9.24,5.09-13.63,3-6.52,6.47-12.82,9.69-19.24,1-2.08,1.72-4.35,2.89-6.35,3.32-5.64,7-11.05,10.8-16.38a9.3,9.3,0,0,0,1.85-6.41c-.15-1.67-.47-3.33-.64-5-.08-.81-.24-1.74.94-2,2.09-.5,2.82-1.94,2.56-3.94a3,3,0,0,1,1.53-3.12,3.4,3.4,0,0,0,2-3.62c-.06-.52.08-1.3.79-.9,2,1.13,4.5,1.38,5.58,4,2,5,6,6.63,10,4.38a10.78,10.78,0,0,0,4.51-5.43,1.61,1.61,0,0,0,0-1.49c-.52.16-.55.68-.77,1-1.47,2.37-3.66,3.58-5.75,3.17-3.44-.69-4.87-2.18-5.48-5.4-.33-1.75-.65-3.5-.82-5.36a1.3,1.3,0,0,0-1,.81c-.21.44,0,1.22-.68,1.25s-.89-.67-1.12-1.19a15.86,15.86,0,0,1-1.75-6.33,12.67,12.67,0,0,0-1.63-6.12,1.5,1.5,0,0,1-.21-1.44c.63-1.66-.22-2.78-2-2.7-.45,0-.89.17-1.34.18A1.76,1.76,0,0,1,91.48,119c-.25-1,.6-1.15,1.23-1.46.35-.17.72-.3,1.06-.49.87-.51,1.2-1,0-1.6-.47-.21-.94-.42-1.41-.65-3.35-1.68-3.9-6-2.16-8.91.24-.42,1.05-.73.64-1.25s-1.2-.32-1.77,0c-1.59,1.07-2.51.12-3.3-1.1-1.1-1.7,0-3.11.75-4.5.46-.83.37-1.21-.58-1.23-2.44,0-4-1.68-5.22-3.34-1.12-1.49-2-3.4-.8-5.41.89.79,1.64,2,3.12,1.14a2.26,2.26,0,0,0,1-3h.73A2.11,2.11,0,0,0,86.84,89a2.18,2.18,0,0,0,2-1.6,1.83,1.83,0,0,0-1-2.28c-.85-.56-.76-1-.21-1.7a7.67,7.67,0,0,0,.7-1.37c1.87.59,2.32,2.44,3.39,3.86-.32-1.84-.22-3.69-1.26-5.28-.76-1.16-1.54-2.32-2.3-3.48l-.62-.42,0,0c-.57-2.09-.81-4.11,1.27-5.6l.75.48-.68.93a1.63,1.63,0,0,0,0,2.14c.53.68,1.16,1.27,2.12,1A2.24,2.24,0,0,0,92.77,74c.26-1.3-.66-2-1.64-2.54.32-.57.72-.6,1.26-.25a19.85,19.85,0,0,0,2.47,1.47c.62.3,1.26,1.43,1.91.63s-.55-1.23-1-1.8l-.23-.3c.88-1.07,2.11-2,1.6-3.65,2-.87.57-1.9-.11-2.38-2.8-1.95-3.38-5-4.24-7.94a7.68,7.68,0,0,0,1.14.23,2.31,2.31,0,0,0,2.17-1.35,1.6,1.6,0,0,0-.26-2,2,2,0,0,0-2.19-.88c-.37.12-.75.19-1.13.28l.69-4.63c1.13,1.49,2.47,2.15,4.27,1.17.43.62.67,1.41,1.48,1.89,0-.75-.07-1.33-.13-1.9-.13-1.39.13-2.58,1.54-3.23a3.32,3.32,0,0,1,3.77.52,18.9,18.9,0,0,0,3.12,1.68c-.84-2.39-1.31-2.93-4.09-4.79.11-2.56.8-3.4,3.39-4.16,2.84-.82,4-.42,5.7,2.06.52,2.71-.31,4.9-1.94,7.17A15.32,15.32,0,0,0,107,58.09c0,2.14,0,4.28,0,6.42a14.43,14.43,0,0,0,1.12,5.26c1.41,3.58,5,4.23,7.67,6.15a1.1,1.1,0,0,0,1.4-.2c.13-.22-.27-.78-.42-1.18A18.36,18.36,0,0,0,126.15,76c6.08-.64,11.71-5.66,12.38-11.82.17-1.51.3-3,1.83-3.79,1.47.31,2.46-.09,2.55-1.77A1.69,1.69,0,0,1,145,59a8.45,8.45,0,0,0,7.59,1.53,7.19,7.19,0,0,0,6.34-2.08c2.76-1.31,3.94-3.76,4.55-6.54A18,18,0,0,0,163,41.8c.4-.13,1.31,1.28,1.17-.23-.33-3.69-1.33-7.07-5.1-8.89a51.2,51.2,0,0,1-4.57-2.79c1.07-2.24,2.21-2.79,4.46-1.78,1.85.83,3.06.36,4-1.33A6.56,6.56,0,0,1,165,24.52c.94,3.75,1.72,4.17,4.39,2.33a8.49,8.49,0,0,1-2.22,7.49c-.75.89-1.32,1.63.46,1.95,2.9.52,3.54,1.93,2.18,4.65-.31.63-.71,1.22-1,1.86A1.75,1.75,0,0,0,169,45c.45-.75.82-1.32,1.16-1.92A11.41,11.41,0,0,1,174,39.22c1.55-1,2.91-.5,4.3.39s1.38,1.85.92,3.17A6.12,6.12,0,0,0,179,44.7c0,.48-.1,1.15.64,1.2.58,0,.83-.42,1.08-.93.71-1.42,1.51-2.8,2.27-4.19.19,1.39.82,2.65,2.3,2.66s2.13-1.23,2.33-2.63c1,1.41,0,2.55-.51,3.74-1.08-.37-2.14-.54-3,.51-.44.56-.86,1.15-.46,1.93.5,1,1.23,1.81,2.39,1.46a2.2,2.2,0,0,0,1.54-3.17c2.3-2.43,3.53-2.61,6.09-.91-1.09.46-2.21,1-2.37,2.3a2.18,2.18,0,0,0,1.13,1.91c1.09.83,1.93,0,2.86-.36-.06.51-.12,1-.17,1.52s-.63,1.53.23,1.91,1-.58,1.36-1.18c1-1.94,2.85-1.56,4.47-1.34s1.93,1.43,2,2.88c.28,4.07-1.13,7.61-3.15,11-.76,1.28-1.51,2.56-2.21,3.87a1.38,1.38,0,0,0,0,1.49c.44.59.94.14,1.38-.05,1.07-.47,1.64-.07,2.08,1a4.8,4.8,0,0,1,.37,3.37c-.92,3.11-1.89,6.19-4.09,8.7-.32.36-.95.75-.53,1.28s1,0,1.42-.12.9-.49,1.39,0a6.28,6.28,0,0,1,1.86,3.09c.49,2.44-.46,4.73-.47,7.11l-.13.06.11-.08a3.9,3.9,0,0,1,.57-.13c1.71-.06,3.43,0,4.37,1.75s.94,4.34-.34,5.08c-2.41,1.41-.72,2.4-.28,3.55.94,2.44.28,3.38-2.37,3.35-.87,0-1.69-.58-2.56-.3-.1.43.15.56.34.73,5.17,4.33,4.37,10.79-1.69,13.62a6.19,6.19,0,0,1-1,.48c-1.05.22-1.36.86-1.51,1.89-.55,3.67-2.34,5.3-6,6.17-1.91.46-3.86.24-6.11.57a25.88,25.88,0,0,0,6.42,2.05,7.79,7.79,0,0,0,9.08-6.28c.12-.76.42-.85,1.06-1a8.59,8.59,0,0,0,6.47-9.14,21.51,21.51,0,0,0-.56-4.22,1.24,1.24,0,0,1,.54-1.66c1.56-.92,1.59-2.32,1.28-3.91-.21-1-.89-1.91-.66-3a1.16,1.16,0,0,1,.48-.77c.37-.15.61.28.61.54,0,1.55,1,2.77,1.25,4.24a9.13,9.13,0,0,0,4.41,6.56c4.92,2.81,10.14,5.11,16.13,4,3.35-.6,6.79-.81,9.6-3.11,1.75-1.43,3.55-2.82,5.37-4.16a19.14,19.14,0,0,0,6.12-8.1c.76-1.71,1.21-3.56,2.32-5.11A51.64,51.64,0,0,0,265.76,98c2.91-.34,5.5-1.69,8.19-2.71.58,1.42,1.08,1,1.81,0,.87-1.19.93-3.13,2.85-3.37a3.88,3.88,0,0,0,3.31-2.4c.8-2.07,1.65-3.27,3.87-1.55.21.16.62.1.95.11.59,0,1.24,0,1.52-.63s-.39-.85-.7-1.23c-1.38-1.74-4.66-2.68-2.24-5.88a2.21,2.21,0,0,0-2.7,1.11c-1,1.49-2.06,3-3.07,4.49-1.29,1.91-2.29,1.87-3.42-.15-1.8-3.22-.9-8.84,1.82-11.44a8.24,8.24,0,0,0,.58,1.8,1.85,1.85,0,0,0,2.22,1.07,2.19,2.19,0,0,0,1.7-2.09,2.33,2.33,0,0,0-1.75-2.07c-.91-.34-1.5.66-2.36.54a1.58,1.58,0,0,1,1.47-1.52c2.8-.52,5.23-2.34,8.37-2.06A1.37,1.37,0,0,0,287,69c-2-.29-3.95-.62-5.93-.84a5.94,5.94,0,0,0-6.63,3.58,10.34,10.34,0,0,1-2.1,3c-1.25,1.21-2.77,2.3-4.62,2-1.39-.24-1.83-1.75-2-2.87a5.22,5.22,0,0,1,1.35-4.62,6.35,6.35,0,0,0,.49,1.45c.5.78,1.18,1.44,2.22,1.12a2.2,2.2,0,0,0,1.73-2.1,2.38,2.38,0,0,0-1.6-2c-.68-.32-1.26.23-1.89.07,5-6.88,11.48-9,19.79-6.08a3.09,3.09,0,0,0-2.58-2c-3.32-.86-6.68-1.58-10-2.33a2.11,2.11,0,0,0-1.34,0c-1.89,1.07-3.7.09-5.44-.29-2.85-.62-3.32-2.3-1.75-4.72a11.13,11.13,0,0,1,4.87-3.69c2.7-1.3,5.79-.64,8.54-1.62a2.59,2.59,0,0,1,2.86.59,16.8,16.8,0,0,0,5.55,3.53,8.89,8.89,0,0,1,6.09,7.54c0,.19.06.38.09.58a2.49,2.49,0,0,0-2.51,2.25c-.08.95.65,1.61,1.54,2s1.67-.45,2.53-.6a8.65,8.65,0,0,1,1.16,2c.8,3.24,2.26,6.32,2.06,9.82-.22,4.07.25,8.2-.29,12.21a111.63,111.63,0,0,1-4,16.72c-1.4,4.76-2.74,9.54-4.53,14.18-2.69,6.93-7.42,12.49-12.07,18.11a56.19,56.19,0,0,1-11.41,10.2c-2.83,2-5.27,4.67-9,5-1,.09-.81,1-.79,1.7.13,4.35.24,8.69.37,13,0,.33-.18.82.52.94a24.86,24.86,0,0,0,1.12-4,3.09,3.09,0,0,1,1.38-2.39c1-.47,1.26.84,1.92,1.26a3.54,3.54,0,0,1,.58.52c2.41,2.67,5.62,4.68,7,8.19a116,116,0,0,1,6,19.21c.22,1.07.18,2.21.46,3.26s.1,3.06,1.08,3c1.3,0,1.2-1.9,1.33-3a40.29,40.29,0,0,0-3-20.31c-.93-2.27-1.73-4.59-2.62-6.88-.33-.83-.36-1.41.61-1.89a41.56,41.56,0,0,1,9.15-3.13c.64-.15,1.51,0,1.7-.94,1.61-.06,3.22-.09,4.82-.19a3.44,3.44,0,0,1,3.88,2.44,10.3,10.3,0,0,0-3.93,1c-1.13-.88-2.24-1.91-3.63-.41a1.8,1.8,0,0,0,0,2.72c1.35,1.51,2.49.58,3.63-.33C292.43,164.71,294.91,163.72,297.46,163.09Zm-118.95-24.2c1.48-1.59,1.8-4.53,5-4.17.28,0,.67-.37.9-.66s.65-.88.26-1.4-.84-.31-1.25-.13c-1.57.68-2.29.11-2.5-1.51a8.49,8.49,0,0,0-.72-2c-.24-.56-.36-1.39-1.24-1.22-.7.14-.71.86-.77,1.43a11.44,11.44,0,0,0-.06,1.94A7.12,7.12,0,0,1,176.4,136c-1.39,1.78-3.14,1.69-4.42-.18a8.2,8.2,0,0,0-.65-1c-.39-.42-.83-.9-1.5-.63s-.55.82-.56,1.34a4.59,4.59,0,0,0,3.45,4.61,30,30,0,0,0,3.29.21c.5,2.13,1.51,3.1,2.81,2.63a2.17,2.17,0,0,0,1.62-2A2.27,2.27,0,0,0,178.51,138.89ZM131.42,148c-.27.43-.53.87-.81,1.29-.88,1.38-.24,2.34.94,3,1.35.74,2.13-.15,2.77-1.19s-.29-1.67-.5-2.49c2.54.11,4.92-.2,6.55-2.5.64-.9,1.18-.31,1.74.17,4.23,3.62,8.73,1.1,10-2.9.36-1.07.86-1.32,2-1.21a4.87,4.87,0,0,0,5.09-3.1c.47-1,.68-2.21-.31-2.82s-1.51.56-2,1.24c-1.42,1.89-2.74,2.36-4.45,1.41a7.81,7.81,0,0,1-1.44-1.27c-.39-.36-.82-.74-1.37-.42s-.43,1-.17,1.54a15.17,15.17,0,0,0,.92,1.48c.21.31.5.54.35,1-.73,2.23-4.34,3.58-6.42,2.36a5.74,5.74,0,0,1-2.63-3.48c-.17-.58-.46-1.11-1.19-1a1.09,1.09,0,0,0-1,1.19c0,2.6-2.14,3.55-3.75,4.83a2.86,2.86,0,0,1-3.28,0c-1.81-.95-2.54-2.7-3.52-4.28-.25-.4-.28-1.19-1-1-.52.18-.45.86-.48,1.38a4.77,4.77,0,0,0,.37,2.08A12.5,12.5,0,0,0,131.42,148ZM97.52,94.82c3.23,1.05,4.73.81,6.88-1.27.9-.86,1.34-.62,2.21,0,4.53,3.39,6.78,8.33,8.77,13.3,1.56,3.87,4.26,6.64,7.26,9.15a25.12,25.12,0,0,0,17.76,5.89c2.72-.11,5.45-.06,8.17,0a10.59,10.59,0,0,0,4.58-.73c3.35-1.53,6.92-2.4,10.27-4a40.46,40.46,0,0,0,13.71-10.3c2.28-2.71,4.59-5.38,5.82-8.85,1.6-4.51.7-9,.2-13.46-.44-4-1.67-7.85-1.75-11.9a5.87,5.87,0,0,1,5.88-6.43c1.94-.12,3.89-.31,5.42-1.72-6.8-.55-13.06-2.42-18.46-6.7a.9.9,0,0,0,.1,1.13c1,1.14,2.14,2.25,3.19,3.4.43.48,1,1,.59,1.71a1.68,1.68,0,0,1-1.53.68,57.39,57.39,0,0,0-11.89,1.54A76.18,76.18,0,0,0,156,68.3c-8.71,3.06-16.82,7.44-24.92,11.79-5.93,3.19-11.86,6.29-18.59,7.52-4.05.74-5.41-.23-5.84-4.24a6.94,6.94,0,0,0-3-5.4C105.91,85.11,103,90.34,97.52,94.82ZM141,367.15c-.79,3.94.58,7.21,2.8,10.23,1.11,1.52,2.53,1.42,3.59-.11,1.29-1.85,1.46-3.48,0-5.45a8.54,8.54,0,0,1-.32-10.54c.88-1.35,2-2.54,2.43-4.16.18-.73.78-1.57,0-2.15s-1.53,0-2.12.49C143.59,358.48,139.64,361.43,141,367.15Zm-4.16,6.74c-.15-1.31-.83-2.15-2.11-2.19a2.13,2.13,0,1,0-.06,4.25A2.22,2.22,0,0,0,136.87,373.89ZM264.71,236.94a2.19,2.19,0,0,0-2.08,2.12,2,2,0,0,0,2.21,2.17,2,2,0,0,0,2-2.15C266.84,237.8,266,237.12,264.71,236.94Zm-77.23,45.74a2.22,2.22,0,0,0-2.14-2.08,2,2,0,0,0-2.15,2,2,2,0,0,0,2.18,2.22C186.65,284.85,187.32,284,187.48,282.68Zm-87.61-46a2.09,2.09,0,0,0-2.17-2.06,2.12,2.12,0,1,0,.15,4.24A2.08,2.08,0,0,0,99.87,236.72ZM75.08,279.45a2.2,2.2,0,0,0,2.16-2.05,2,2,0,0,0-2.15-2.25A2,2,0,0,0,73,277.24C73,278.52,73.78,279.23,75.08,279.45Zm180.17-46.74c-.35-1-.94-2-2.23-2a2,2,0,0,0-2.08,2.29,2,2,0,0,0,2.21,2C254.39,234.92,255.05,234.05,255.25,232.71ZM243.54,275a2.06,2.06,0,0,0-2-2.16,2.12,2.12,0,1,0-.11,4.24C242.67,277.08,243.36,276.24,243.54,275ZM203.2,222.93a2.18,2.18,0,0,0-2.09,2.11,2,2,0,0,0,2.22,2.18,2,2,0,0,0,2-2.16C205.33,223.79,204.51,223.1,203.2,222.93Zm2,109.47c1.27-.22,2.09-.91,2.07-2.19a2,2,0,0,0-2.07-2.1,2,2,0,0,0-2.16,2.22A2.2,2.2,0,0,0,205.22,332.4Zm-19.69.87c-.2-1.25-.89-2.09-2.17-2a2.12,2.12,0,1,0,.15,4.24A2.08,2.08,0,0,0,185.53,333.27Zm9.82,8.47a2.13,2.13,0,0,0,2.21-2.06,2,2,0,0,0-1.95-2.23,2,2,0,0,0-2.29,2.11C193.28,340.82,194.2,341.48,195.35,341.74Zm71.76-115.25c1.31-.22,2.11-.92,2.09-2.2a2,2,0,0,0-2.09-2.09,2,2,0,0,0-2.15,2.25A2.19,2.19,0,0,0,267.11,226.49Zm-13.43,41.87a2.15,2.15,0,0,0-2.07-2.17,2,2,0,0,0-2.23,1.94,2,2,0,0,0,2.1,2.3C252.74,270.48,253.41,269.56,253.68,268.36Zm-66.2,79.92c-1,.29-2,.89-1.95,2.16a2.05,2.05,0,0,0,2.26,2.15,2,2,0,0,0,2-2.19C189.73,349.12,188.9,348.45,187.48,348.28Zm98.27-124.12c1.3-.18,2.12-.87,2.14-2.14a2,2,0,0,0-2-2.15,2,2,0,0,0-2.21,2.18A2.2,2.2,0,0,0,285.75,224.16ZM172.09,367.06c1.2-.26,2.1-.92,2.1-2.18a2.12,2.12,0,1,0-4.24,0A2.25,2.25,0,0,0,172.09,367.06ZM163,371c-.21-1.26-.91-2.09-2.19-2a2.12,2.12,0,1,0,.18,4.24A2.07,2.07,0,0,0,163,371Zm83.14-190.17a2.16,2.16,0,0,0-2.17,2.07,2,2,0,0,0,1.94,2.23,2,2,0,0,0,2.3-2.09C248.21,181.81,247.29,181.15,246.09,180.86ZM221,272.49c-.27-1.13-.92-2-2.19-2a2.12,2.12,0,1,0,.16,4.24C220.19,274.67,220.85,273.8,221,272.49Zm-154.43-4.4c-1.31.21-2.13.91-2.09,2.19a2.12,2.12,0,1,0,4.23-.14A2.2,2.2,0,0,0,66.53,268.09Zm-9.09,9.61a2.19,2.19,0,0,0-2-2.15,2.12,2.12,0,1,0-.15,4.23C56.53,279.82,57.23,279,57.44,277.7ZM50,282.33A2.2,2.2,0,0,0,48,280.22a2,2,0,0,0-2.19,2.18,2,2,0,0,0,2.14,2.06C49.17,284.46,49.86,283.63,50,282.33Zm35.61-46.09c1.24-.2,2.1-.85,2.11-2.13a2.12,2.12,0,1,0-4.24,0C83.54,235.35,84.44,236,85.65,236.24ZM195.1,330.45c1.3-.23,2.12-.94,2.06-2.21a2.12,2.12,0,1,0-4.23.19A2.19,2.19,0,0,0,195.1,330.45Zm-16.18,13.12c-.12-1.31-.78-2.18-2-2.23a2,2,0,0,0-2.25,2.14,2,2,0,0,0,2.1,2.1C178,345.6,178.65,344.71,178.92,343.57ZM162,349.14c1.26-.2,2.11-.87,2.09-2.15a2.12,2.12,0,1,0-4.23.07A2.19,2.19,0,0,0,162,349.14Zm3.9,9.73c1.31-.22,2.13-.92,2.08-2.19a2.12,2.12,0,1,0-4.23.16A2.18,2.18,0,0,0,165.88,358.87Zm-88.6-95.79c1.25-.17,2.21-.76,2.29-2a2,2,0,0,0-2.11-2.27,1.94,1.94,0,0,0-2.12,2C75.29,262.1,76.16,262.76,77.28,263.08Zm7.2-12.42c1.12-.24,2.06-.85,2.1-2.09a2.12,2.12,0,1,0-4.23-.12C82.33,249.7,83.22,250.36,84.48,250.66ZM65.32,256c-1.18.29-2.07.95-2,2.21a2.12,2.12,0,1,0,4.23-.14A2.21,2.21,0,0,0,65.32,256Zm158.77-20c-.25-1.2-.91-2.08-2.16-2.1a2.12,2.12,0,1,0,0,4.24C223.21,238.09,223.87,237.19,224.09,236Zm37.77,23.83a2.26,2.26,0,0,0-2.08-2.18,2.12,2.12,0,1,0-.11,4.24C260.92,261.9,261.58,261,261.86,259.81ZM234.6,280.29c-.3-1.17-1-2.07-2.23-2a2.12,2.12,0,1,0,.19,4.23A2.22,2.22,0,0,0,234.6,280.29Zm-49.16,25.27c1.05-.31,2-.93,2-2.17a2,2,0,0,0-2.24-2.14,2,2,0,0,0-2,2.18C183.24,304.67,184.12,305.33,185.44,305.56Zm.39,15.58c1-.32,2-.91,2-2.18a2.12,2.12,0,1,0-4.24,0C183.61,320.24,184.51,320.9,185.83,321.14Zm-4.78,39.3c1.2-.25,2.08-.91,2.09-2.16a2.12,2.12,0,1,0-4.23.05C178.94,359.56,179.84,360.22,181.05,360.44ZM313.19,235.21a2,2,0,0,0-2,2.07,2,2,0,0,0,2.05,2.12,1.91,1.91,0,0,0,2.09-2.06C315.36,236,314.6,235.33,313.19,235.21ZM175,283.72a2.11,2.11,0,0,0-2.22-2.05,2.07,2.07,0,1,0,.12,4.14C174.24,285.78,174.83,284.91,175,283.72Zm-11.5.62a2,2,0,0,0-2.06-2.17,2.11,2.11,0,0,0-.07,4.22A2,2,0,0,0,163.51,284.34Zm144.84-50.95a2.09,2.09,0,0,0-4.18.05,2,2,0,0,0,2.11,2.06C307.59,235.5,308.23,234.66,308.35,233.39Zm-34-2.66a2.1,2.1,0,0,0-2.08,2.18,2.07,2.07,0,1,0,4.14,0C276.39,231.53,275.53,230.93,274.33,230.73Zm23.89,1.4a2,2,0,0,0-2.07-2.13,2.11,2.11,0,0,0,0,4.22A2,2,0,0,0,298.22,232.13Zm-12.74,1.54c1.27-.11,2.11-.76,2.12-2.07a2,2,0,0,0-2.06-2.11,2.09,2.09,0,0,0-.06,4.18ZM109.84,227.9c-1.24.13-2.14.76-2.17,2a2.11,2.11,0,0,0,4.21.15C112,228.79,111.08,228.12,109.84,227.9Zm21.07,3.75c1.15-.22,2.05-.85,2-2.16a2.11,2.11,0,0,0-4.22.08C128.69,230.85,129.58,231.5,130.91,231.65Zm188.41-6.24c1.25-.23,2.11-.9,2-2.2a2.11,2.11,0,0,0-4.21.18C317.18,224.68,318.08,225.3,319.32,225.41Zm-84.18-2.24c.07,1.28.68,2.15,2,2.21a2,2,0,0,0,2.2-2,2.09,2.09,0,0,0-4.18-.24Zm-85.08,1a2.09,2.09,0,0,0,2-2.21A2.07,2.07,0,1,0,148,222C148,223.38,148.86,224,150.06,224.14Zm156.16-.59a2,2,0,0,0,1.9-2.16,2.11,2.11,0,0,0-4.22.12C304,222.76,304.76,223.48,306.22,223.55ZM183,216.86c-.1-1.28-.72-2.13-2-2.16a2,2,0,0,0-2.15,2,2.09,2.09,0,0,0,4.18.14Zm44.21-3.79c-.26-1.13-.86-2-2.2-2a2.07,2.07,0,1,0,.07,4.14C226.33,215.23,227,214.42,227.19,213.07Zm27.24.35a2,2,0,0,0,2-2.15,2,2,0,0,0-2.14-2,1.92,1.92,0,0,0-2,2.15C252.32,212.72,253.12,213.36,254.43,213.42Zm-134.72-1.55c1.26-.17,2.08-.85,2-2.15a2,2,0,0,0-2.14-2,1.93,1.93,0,0,0-2,2.15C117.6,211.17,118.4,211.8,119.71,211.87Zm197-3.68a2.09,2.09,0,0,0-2.21-2.05,2.07,2.07,0,1,0,.11,4.14C316,210.25,316.55,209.39,316.73,208.19Zm-43.68,1.34c1.28-.13,2.11-.79,2.09-2.1a2,2,0,0,0-2.09-2.08,2.09,2.09,0,0,0,0,4.18Zm20.22-5.46a2.09,2.09,0,0,0,.06,4.18,2,2,0,0,0,2.06-2.11C295.38,204.83,294.54,204.19,293.27,204.07ZM242,205.81a2.09,2.09,0,0,0-2.25-2,2.07,2.07,0,1,0,.2,4.13C241.25,207.88,241.82,207,242,205.81Zm88.18-2.29c-.14-1.27-.81-2.09-2.12-2.06a2,2,0,0,0-2.06,2.11,1.93,1.93,0,0,0,2.12,2C329.42,205.62,330.07,204.82,330.15,203.52Zm-70.87-9.15c.08,1.29.7,2.15,2,2.2a2,2,0,0,0,2.18-2,2.09,2.09,0,0,0-4.18-.2ZM196.5,268.69a2,2,0,0,0-2.13,2,2,2,0,0,0,2,2.2,1.9,1.9,0,0,0,2.17-2C198.6,269.6,197.89,268.87,196.5,268.69Zm-32.2,2.56a2,2,0,0,0-2-2.05,2,2,0,0,0-2.15,2,1.92,1.92,0,0,0,2,2.12C163.46,273.41,164.16,272.67,164.3,271.25Zm13.83-1.58a2.1,2.1,0,0,0-2.21-2,2.07,2.07,0,1,0,.1,4.14C177.35,271.77,177.94,270.9,178.13,269.67Zm-41.65.59c-1.28.15-2.1.82-2.07,2.12a2,2,0,0,0,2.12,2.06,1.92,1.92,0,0,0,2-2.12C138.57,271,137.77,270.34,136.48,270.26Zm89.32-3.45c.09,1.28.7,2.14,2,2.18a2,2,0,0,0,2.16-2,2.09,2.09,0,0,0-4.17-.17Zm-76,1c1.06-.23,2-.75,2-2.1a2.07,2.07,0,1,0-4.14-.15C147.61,266.79,148.4,267.53,149.79,267.77ZM127,267.15a2,2,0,0,0,2-2.15,2.11,2.11,0,0,0-4.22.11A2,2,0,0,0,127,267.15Zm84.43-.78c1.29-.07,2.15-.67,2.21-2a2,2,0,0,0-2-2.19,2.09,2.09,0,0,0-.23,4.17Zm-13.21-1.55c1.29-.09,2.14-.71,2.18-2a1.94,1.94,0,0,0-2-2.16,2.09,2.09,0,0,0-.18,4.18Zm-12.36-1.74a2.1,2.1,0,0,0,2.08-2.18,2.07,2.07,0,1,0-4.14,0C183.78,262.27,184.64,262.87,185.84,263.08Zm.31,14.52c1.15-.2,2.07-.81,2-2.11a2.11,2.11,0,0,0-4.22,0C183.94,276.75,184.83,277.41,186.15,277.6ZM237.72,258a2.09,2.09,0,0,0-2.06,2.19,2.07,2.07,0,1,0,4.13-.06C239.78,258.78,238.92,258.18,237.72,258ZM208,279.15c1.16-.24,2-.88,2-2.19a2.11,2.11,0,0,0-4.22.14C205.81,278.38,206.7,279,208,279.15Zm-67.09-20.71a2,2,0,0,0-2.11-2,2.11,2.11,0,0,0,0,4.22C140.1,260.67,140.84,259.88,140.93,258.44ZM149.22,282a2,2,0,0,0,2.11-2,2,2,0,0,0-2-2.19,1.92,1.92,0,0,0-2.17,2C147.1,281.07,147.83,281.79,149.22,282ZM225.52,257c1.27-.11,2.11-.76,2.12-2.06a2,2,0,0,0-2.06-2.12,2.09,2.09,0,0,0-.06,4.18Zm-105.21-4.5c-1.12.27-2,.87-1.94,2.21a2.07,2.07,0,1,0,4.14-.1C122.47,253.37,121.66,252.67,120.31,252.53Zm40.08,1.16c.14,1.26.81,2.09,2.12,2.06a2,2,0,0,0,2.06-2.11,1.93,1.93,0,0,0-2.12-2C161.12,251.6,160.47,252.39,160.39,253.69Zm84.87-.72a2,2,0,0,0,2.07,2,2,2,0,0,0,2.11-2.06,1.92,1.92,0,0,0-2.06-2.09C246.06,250.79,245.37,251.55,245.26,253Zm-48.58,29c1.27-.1,2.12-.73,2.15-2a2,2,0,0,0-2-2.14,2.09,2.09,0,0,0-.12,4.18ZM128,244.57c-1.28.09-2.13.73-2.15,2a1.94,1.94,0,0,0,2,2.13,2.09,2.09,0,0,0,.12-4.17Zm130.51,1.27a2.09,2.09,0,0,0-4.18.07,2,2,0,0,0,2.12,2.05C257.75,248,258.4,247.12,258.51,245.84Zm-56.07-.06c.08,1.28.7,2.14,2,2.18a1.94,1.94,0,0,0,2.16-2,2.09,2.09,0,0,0-4.17-.18Zm-84.27-1.05a2.11,2.11,0,0,0-2.25-2,2.07,2.07,0,1,0,.17,4.14C117.42,246.83,118,246,118.17,244.73ZM239,246.45c1.16-.15,2.09-.74,2.12-2a2.11,2.11,0,0,0-4.22-.17C236.85,245.54,237.72,246.21,239,246.45Zm-93.61-4.72a2.09,2.09,0,0,0-2.15-2.1,2.07,2.07,0,1,0,0,4.13C144.59,243.77,145.2,242.92,145.42,241.73Zm37.1-.38c-.23-1.15-.85-2.06-2.16-2a2.11,2.11,0,0,0,.07,4.22C181.71,243.57,182.36,242.67,182.52,241.35Zm-21.64-1.45c1.28-.11,2.12-.76,2.13-2.06a2,2,0,0,0-2.06-2.12,2.09,2.09,0,0,0-.07,4.18ZM100,99.47c-1.11.27-2.08.93-2.11,2.15a2.13,2.13,0,0,0,4.25.12C102.22,100.5,101.28,99.8,100,99.47Zm174.1,4.4c1.19-.32,2.14-1,2.08-2.26a2.13,2.13,0,1,0-4.25.13A2.32,2.32,0,0,0,274.13,103.87Zm-83.51.5c-.32-1.2-1-2.14-2.25-2.09a2.13,2.13,0,0,0,.11,4.25A2.33,2.33,0,0,0,190.62,104.37Zm65,3.9c-.3-1.2-1-2.14-2.23-2.1a2.13,2.13,0,1,0,.08,4.25A2.33,2.33,0,0,0,255.64,108.27Zm12.47,3.11c-.3-1.13-1-2.09-2.19-2.1a2.13,2.13,0,0,0,0,4.26C267.12,113.55,267.82,112.62,268.11,111.38Zm-72.43.76c-.31-1.15-1-2.1-2.22-2.08a2.13,2.13,0,1,0,0,4.25C194.72,114.3,195.43,113.37,195.68,112.14Zm-95.78,2.4c-.26-1.19-1-2.13-2.17-2.14a2.13,2.13,0,1,0,0,4.25C98.91,116.67,99.61,115.74,99.9,114.54Zm-5.45-16c-.26-1.19-1-2.13-2.18-2.13a2.13,2.13,0,1,0,0,4.25C93.47,100.7,94.17,99.77,94.45,98.57Zm17.91,16c-.26-1.19-1-2.12-2.17-2.14a2.13,2.13,0,1,0,0,4.25C111.37,116.67,112.07,115.74,112.36,114.54ZM217.1,118c-.34-1.16-1-2.12-2.27-2.06a2.13,2.13,0,0,0,.14,4.26A2.36,2.36,0,0,0,217.1,118Zm27.76,2.27a2.37,2.37,0,0,0,2.15-2.11,2.13,2.13,0,0,0-4.25-.18C242.68,119.18,243.62,119.88,244.86,120.23Zm-202.58,150c-.31-1.15-1-2.11-2.22-2.08a2.13,2.13,0,0,0,0,4.25C41.32,272.37,42,271.44,42.28,270.22Zm138.6-151.48c-.34-1.19-1-2.13-2.28-2.06a2.13,2.13,0,0,0,.18,4.25A2.32,2.32,0,0,0,180.88,118.74Zm55.07,5c1.13-.29,2.09-1,2.1-2.18a2.13,2.13,0,1,0-4.25,0C233.78,122.74,234.71,123.44,236,123.74Zm-11.77-3.23c-1.19.34-2.14,1-2.06,2.28a2.13,2.13,0,1,0,4.25-.18A2.33,2.33,0,0,0,224.18,120.51Zm-15.48,5.56c1.13-.29,2.09-.95,2.1-2.18a2.13,2.13,0,0,0-4.26,0C206.52,125.07,207.46,125.77,208.7,126.07ZM120.22,124c-1.19.34-2.13,1-2.06,2.28a2.13,2.13,0,1,0,4.25-.17A2.32,2.32,0,0,0,120.22,124Zm-11.75,3.4a2.33,2.33,0,0,0-2.14-2.16,2.13,2.13,0,0,0-.12,4.25C107.44,129.55,108.15,128.61,108.47,127.41Zm143.79,3.32c1.2-.25,2.13-.95,2.14-2.17a2.13,2.13,0,0,0-4.25,0C250.13,129.75,251.07,130.45,252.26,130.73Zm20.9.17a2.33,2.33,0,0,0-2.15-2.15,2.13,2.13,0,1,0-.08,4.25C272.15,133,272.86,132.1,273.16,130.9Zm-66.89,4.51a2.33,2.33,0,0,0,2.19-2.11,2.13,2.13,0,0,0-4.25-.17C204.13,134.36,205.08,135.06,206.27,135.41ZM188.46,53.25c1.2-.31,2.14-1,2.09-2.24a2.13,2.13,0,1,0-4.25.11A2.32,2.32,0,0,0,188.46,53.25Zm31,80.36c-.26-1.19-1-2.13-2.18-2.13a2.13,2.13,0,1,0,0,4.25C218.45,135.74,219.15,134.81,219.43,133.61Zm16.36.77a2.36,2.36,0,0,0-2.13-2.12,2.13,2.13,0,1,0-.14,4.25C234.75,136.57,235.46,135.62,235.79,134.38ZM40.84,261.17A2.33,2.33,0,0,0,43,259a2.13,2.13,0,0,0-4.25-.08C38.7,260.16,39.64,260.86,40.84,261.17ZM193.73,136.34c-.26-1.2-1-2.13-2.18-2.14a2.13,2.13,0,1,0,0,4.25C192.75,138.47,193.45,137.53,193.73,136.34ZM54.73,257c-.28-1.2-1-2.13-2.2-2.12a2.13,2.13,0,0,0,0,4.25C53.77,259.15,54.47,258.21,54.73,257ZM101.59,58.21c-1.19.28-2.13,1-2.12,2.21a2.13,2.13,0,0,0,4.25,0C103.72,59.18,102.79,58.48,101.59,58.21Zm86,11.68c-1.2.32-2.14,1-2.09,2.25a2.13,2.13,0,1,0,4.25-.11A2.33,2.33,0,0,0,187.61,69.89Zm-32,292.62c-.3-1.19-1-2.13-2.23-2.1a2.13,2.13,0,0,0,.08,4.25C154.63,364.64,155.33,363.71,155.57,362.51Zm-25.15.28c1.19-.29,2.13-1,2.12-2.21a2.13,2.13,0,0,0-4.25,0C128.29,361.82,129.22,362.52,130.42,362.79Zm64.25-291a2.37,2.37,0,0,0-2.14,2.11,2.13,2.13,0,1,0,4.25.18C196.86,72.89,195.91,72.18,194.67,71.83ZM166.48,31.56c-.32-1.2-1-2.14-2.25-2.09a2.13,2.13,0,1,0,.11,4.25A2.33,2.33,0,0,0,166.48,31.56ZM294.57,67c-.31-1.2-1-2.14-2.25-2.09a2.13,2.13,0,0,0,.12,4.25A2.32,2.32,0,0,0,294.57,67ZM135.49,357.33c1.19-.28,2.13-1,2.11-2.21a2.13,2.13,0,0,0-4.25,0C133.36,356.38,134.29,357.08,135.49,357.33ZM166.6,41.2a2.39,2.39,0,0,0,2.15-2.12,2.13,2.13,0,0,0-4.25-.18C164.42,40.14,165.36,40.84,166.6,41.2ZM293.87,73.79c-1.19.34-2.14,1-2.06,2.28a2.13,2.13,0,0,0,4.25-.18A2.32,2.32,0,0,0,293.87,73.79ZM98.34,76.73c-.3-1.2-1-2.13-2.23-2.1a2.13,2.13,0,1,0,.08,4.25A2.32,2.32,0,0,0,98.34,76.73Zm31.82,265.53a2.34,2.34,0,0,0,2.14,2.16,2.13,2.13,0,0,0,.12-4.25C131.19,340.12,130.48,341.06,130.16,342.26ZM103.52,64.44c-1.2.3-2.14,1-2.1,2.24a2.13,2.13,0,0,0,4.25-.08A2.34,2.34,0,0,0,103.52,64.44ZM98.34,85.35a2.33,2.33,0,0,0-2.15-2.15,2.13,2.13,0,1,0-.08,4.25C97.34,87.49,98,86.54,98.34,85.35ZM286,65.4c-.33-1.17-1-2.12-2.26-2.06a2.13,2.13,0,1,0,.13,4.25A2.33,2.33,0,0,0,286,65.4ZM174.84,45.47c1.2-.32,2.14-1,2.08-2.26a2.13,2.13,0,0,0-4.25.13A2.33,2.33,0,0,0,174.84,45.47Zm-66.64.39c1.2-.26,2.13-1,2.14-2.17a2.13,2.13,0,1,0-4.25,0C106.07,44.87,107,45.57,108.2,45.86Zm81.07,38.05a2.33,2.33,0,0,0-2.19,2.1,2.13,2.13,0,1,0,4.25.18C191.41,85,190.46,84.25,189.27,83.91ZM141.36,320.36c1.14-.31,2.1-1,2.08-2.22a2.13,2.13,0,1,0-4.25,0C139.19,319.38,140.12,320.08,141.36,320.36Zm-20.7-7.9c-1.19.29-2.13,1-2.11,2.21a2.13,2.13,0,0,0,4.25,0C122.79,313.41,121.86,312.71,120.66,312.46Zm9.22-8.33c-.28-1.2-1-2.13-2.2-2.12a2.13,2.13,0,1,0,0,4.25C128.92,306.26,129.62,305.33,129.88,304.13Zm166.25-218A2.33,2.33,0,0,0,294,84a2.13,2.13,0,1,0-.13,4.25C295.1,88.29,295.81,87.35,296.13,86.15ZM118.77,304c1.19-.31,2.14-1,2.09-2.24a2.13,2.13,0,0,0-4.25.11A2.32,2.32,0,0,0,118.77,304Zm9.55-10.37c-.28-1.2-1-2.13-2.2-2.12a2.13,2.13,0,1,0,0,4.25C127.36,295.74,128.06,294.81,128.32,293.62ZM170.39,47.94a2.4,2.4,0,0,0-2.14-2.12,2.13,2.13,0,1,0-.14,4.25C169.34,50.13,170,49.19,170.39,47.94ZM277.84,65.06c-.27-1.13-.94-2.08-2.16-2.11a2.13,2.13,0,1,0-.08,4.25C276.83,67.24,277.53,66.3,277.84,65.06Zm-81.2,31.81c1.15-.31,2.1-1,2.09-2.21a2.1,2.1,0,0,0-2.14-2.12,2.07,2.07,0,0,0-2.11,2.14C194.48,95.9,195.41,96.6,196.64,96.87ZM127.15,282a2.33,2.33,0,0,0-2.12-2.17,2.13,2.13,0,0,0-.14,4.25C126.13,284.13,126.83,283.19,127.15,282ZM281.06,47.7c-1.19.3-2.13,1-2.1,2.23a2.13,2.13,0,1,0,4.25-.08A2.33,2.33,0,0,0,281.06,47.7Zm12.52,51.51c1.12-.29,2.08-1,2.09-2.18a2.13,2.13,0,0,0-4.25,0C291.4,98.21,292.34,98.91,293.58,99.21ZM126,161.59c-.32-1.2-1-2.14-2.25-2.08a2.13,2.13,0,1,0,.13,4.25A2.32,2.32,0,0,0,126,161.59ZM62.34,226.51c1.19-.34,2.14-1,2.06-2.28a2.13,2.13,0,0,0-4.25.18A2.32,2.32,0,0,0,62.34,226.51Zm79.23-63.35c-.29-1.12-.95-2.08-2.18-2.09a2.13,2.13,0,1,0,0,4.25C140.57,165.34,141.27,164.41,141.57,163.16ZM288,52.37c-1.16.34-2.12,1-2.06,2.26a2.13,2.13,0,0,0,4.25-.13A2.33,2.33,0,0,0,288,52.37Zm14.44,111.34c-1.12.3-2.08,1-2.09,2.19a2.13,2.13,0,0,0,4.25,0C304.65,164.72,303.71,164,302.47,163.71Zm-18.8,3.39c-.26-1.2-1-2.13-2.18-2.14a2.13,2.13,0,1,0,0,4.25C282.69,169.23,283.39,168.29,283.67,167.1Zm-176.37.76c-.28-1.2-1-2.13-2.21-2.12a2.13,2.13,0,1,0,0,4.25C106.33,170,107,169.05,107.3,167.86Zm92.45-117A2.31,2.31,0,0,0,197.59,53a2.13,2.13,0,0,0,4.25.12C201.89,51.84,201,51.13,199.75,50.82ZM78.48,215a2.32,2.32,0,0,0-2.12-2.17,2.13,2.13,0,0,0-.14,4.25C77.46,217.16,78.16,216.22,78.48,215Zm104-46.81c-.32-1.2-1-2.14-2.26-2.08a2.13,2.13,0,1,0,.14,4.25A2.33,2.33,0,0,0,182.44,168.21Zm-115.95,43c-1.19.34-2.14,1-2.06,2.28a2.13,2.13,0,0,0,4.25-.18A2.32,2.32,0,0,0,66.49,211.23ZM294.39,168a2.33,2.33,0,0,0-2.19,2.1,2.13,2.13,0,1,0,4.25.18C296.53,169.06,295.58,168.35,294.39,168Zm-205.2,4.77c1.19-.32,2.14-1,2.08-2.25a2.13,2.13,0,1,0-4.25.13A2.32,2.32,0,0,0,89.19,172.78Zm219.14,3.51c1.19-.26,2.12-1,2.14-2.17a2.13,2.13,0,0,0-4.25-.05C306.2,175.3,307.13,176,308.33,176.29Zm-23.77-2.44c-1.2.32-2.14,1-2.09,2.25a2.13,2.13,0,1,0,4.25-.11A2.33,2.33,0,0,0,284.56,173.85Zm-133.27,2.57c-.29-1.2-1-2.14-2.21-2.11a2.13,2.13,0,0,0,0,4.25C150.34,178.54,151,177.61,151.29,176.42Zm-35.36-.62c-1.18.34-2.12,1-2.05,2.28a2.13,2.13,0,0,0,4.25-.18A2.32,2.32,0,0,0,115.93,175.8Zm-32.24,6.34A2.39,2.39,0,0,0,85.82,180a2.09,2.09,0,0,0-2.06-2.19,2.07,2.07,0,0,0-2.19,2.06C81.51,181.1,82.45,181.8,83.69,182.14ZM73,202.08c-.31-1.15-1-2.1-2.22-2.08a2.13,2.13,0,0,0,0,4.25C72.08,204.24,72.78,203.31,73,202.08Zm9.53,1.08c1.15-.31,2.1-1,2.08-2.22a2.13,2.13,0,0,0-4.25,0C80.41,202.2,81.34,202.9,82.57,203.16ZM94.84,199c-.26-1.19-1-2.12-2.18-2.13a2.13,2.13,0,1,0,0,4.25C93.86,201.15,94.56,200.22,94.84,199Zm238.67-3.53c-.29-1.19-1-2.13-2.22-2.11a2.13,2.13,0,0,0,0,4.25C332.55,197.62,333.25,196.69,333.51,195.49Zm1.16-15.16c-.26-1.19-1-2.12-2.18-2.13a2.13,2.13,0,0,0,0,4.25C333.69,182.46,334.39,181.53,334.67,180.33ZM104.76,196.15c1.2-.33,2.14-1,2.08-2.26a2.13,2.13,0,1,0-4.25.13A2.34,2.34,0,0,0,104.76,196.15ZM181.67,53.36c-.29-1.13-1-2.09-2.19-2.09a2.13,2.13,0,1,0,0,4.25C180.68,55.54,181.38,54.6,181.67,53.36ZM141.56,191.21c-.29-1.19-1-2.13-2.22-2.11a2.13,2.13,0,1,0,0,4.25C140.6,193.34,141.31,192.41,141.56,191.21Zm-64.42,1.43c1.19-.34,2.13-1,2.06-2.28a2.13,2.13,0,1,0-4.25.18A2.32,2.32,0,0,0,77.14,192.64Zm210.54-5.56c-1.12.27-2.08.94-2.1,2.16a2.13,2.13,0,0,0,4.25.08C289.87,188.09,288.93,187.39,287.68,187.08Zm-81.1,1c-.29-1.2-1-2.14-2.22-2.11a2.13,2.13,0,0,0,0,4.25C205.63,190.22,206.33,189.29,206.58,188.1ZM94.19,181.64c-1.2.29-2.14,1-2.11,2.21a2.13,2.13,0,0,0,4.25,0C96.31,182.59,95.38,181.89,94.19,181.64ZM300.81,183c-.29-1.13-.95-2.09-2.18-2.1a2.13,2.13,0,0,0,0,4.26C299.81,185.2,300.51,184.26,300.81,183ZM134.94,157.38a2.33,2.33,0,0,0-2.15-2.15,2.13,2.13,0,1,0-.08,4.25C133.94,159.52,134.64,158.58,134.94,157.38Zm-23.35-1.25c-.33-1.15-1-2.11-2.24-2.07a2.13,2.13,0,1,0,.08,4.25C110.64,158.28,111.34,157.35,111.59,156.13Zm65.22-2.53a2.33,2.33,0,0,0-2.19,2.11,2.13,2.13,0,0,0,4.25.18C179,154.65,178,153.94,176.81,153.6Zm-57,.57c-.33-1.15-1-2.11-2.25-2.06a2.13,2.13,0,0,0,.11,4.25C118.83,156.32,119.53,155.39,119.76,154.17ZM168.42,153c-.34-1.2-1-2.14-2.28-2.06a2.13,2.13,0,0,0,.18,4.25A2.33,2.33,0,0,0,168.42,153Zm-21.8-1.92c-.31-1.2-1-2.14-2.25-2.09a2.13,2.13,0,0,0,.11,4.25A2.33,2.33,0,0,0,146.62,151.09ZM105.35,51.77c-.34-1.18-1-2.13-2.28-2.05a2.13,2.13,0,1,0,.18,4.25A2.34,2.34,0,0,0,105.35,51.77Zm53.34,98.15c-.32-1.2-1-2.14-2.25-2.09a2.13,2.13,0,0,0,.11,4.25A2.33,2.33,0,0,0,158.69,149.92ZM57.86,244.13c-.31-1.14-1-2.1-2.21-2.08a2.13,2.13,0,1,0,0,4.25C56.89,246.3,57.59,245.37,57.86,244.13Zm39.88-96.37a2.34,2.34,0,0,0-2.16,2.14,2.13,2.13,0,0,0,4.25.12C99.88,148.78,98.94,148.08,97.74,147.76Zm122.08,1.44a2.33,2.33,0,0,0-2.16-2.15,2.13,2.13,0,1,0-.07,4.25C218.81,151.34,219.52,150.4,219.82,149.2ZM120.3,147c-1.19.26-2.12,1-2.14,2.17a2.13,2.13,0,0,0,4.25,0C122.44,148,121.5,147.28,120.3,147Zm77.07-.77c-1.2.28-2.13,1-2.12,2.2a2.13,2.13,0,0,0,4.25,0C199.5,147.17,198.57,146.47,197.37,146.21Zm47,1.39c-.28-1.12-.94-2.08-2.17-2.11a2.13,2.13,0,0,0-.08,4.25C243.34,149.78,244,148.84,244.36,147.6Zm-76.53.66c1.2-.33,2.14-1,2.08-2.26a2.13,2.13,0,1,0-4.25.13A2.34,2.34,0,0,0,167.83,148.26ZM186,143.47c-1.15.31-2.1,1-2.08,2.23a2.13,2.13,0,1,0,4.25,0C188.2,144.43,187.27,143.73,186,143.47Zm14.52-1.83c1.19-.34,2.14-1,2.06-2.28a2.13,2.13,0,0,0-4.25.17A2.33,2.33,0,0,0,200.56,141.64Zm-5.27-82.73a2.33,2.33,0,0,0-2.1-2.19A2.13,2.13,0,1,0,193,61C194.24,61.05,195,60.11,195.29,58.91ZM149.9,160.33c1.2-.31,2.14-1,2.1-2.24a2.13,2.13,0,0,0-4.25.08A2.34,2.34,0,0,0,149.9,160.33ZM59.12,230.69c-1.2.33-2.14,1-2.08,2.26a2.13,2.13,0,0,0,4.25-.13A2.35,2.35,0,0,0,59.12,230.69ZM276.67,51.82a2.38,2.38,0,0,0-2.16-2.11,2.13,2.13,0,0,0-.08,4.26C275.66,54,276.36,53.06,276.67,51.82ZM94.27,160.72c1.17-.34,2.12-1,2.06-2.26a2.13,2.13,0,1,0-4.25.13A2.35,2.35,0,0,0,94.27,160.72Zm65.35,2.73a2.38,2.38,0,0,0,2.12-2.13,2.13,2.13,0,1,0-4.25-.14C157.43,162.41,158.37,163.11,159.62,163.45Zm73.84-4.15a2.39,2.39,0,0,0-2.14-2.13,2.13,2.13,0,0,0-.14,4.26C232.42,161.49,233.12,160.54,233.46,159.3Zm-28.05,1.9c-.32-1.19-1-2.14-2.26-2.08a2.13,2.13,0,1,0,.14,4.25A2.33,2.33,0,0,0,205.41,161.2ZM73,229.84a2.32,2.32,0,0,0-2.1-2.19,2.13,2.13,0,0,0-.18,4.25C72,232,72.69,231,73,229.84Zm71.31,107a1.91,1.91,0,0,0-2,2.08,2.12,2.12,0,0,0,4.24-.16A1.94,1.94,0,0,0,144.34,336.82Z"/><path class="cls-3" d="M193.71,44.37c-2.56-1.7-3.79-1.52-6.09.91l-.51-.73c.56-1.19,1.53-2.33.51-3.74-1.45-2.13-3.14-2.14-4.63,0-.76,1.39-1.56,2.77-2.27,4.19-.25.51-.5,1-1.08.93-.74,0-.63-.72-.64-1.2a6.12,6.12,0,0,1,.18-1.92c.46-1.32.37-2.35-.92-3.17s-2.75-1.44-4.3-.39A11.41,11.41,0,0,0,170.18,43c-.34.6-.71,1.17-1.16,1.92a1.75,1.75,0,0,1-.2-2.16c.31-.64.71-1.23,1-1.86,1.36-2.72.72-4.13-2.18-4.65-1.78-.32-1.21-1.06-.46-1.95a8.49,8.49,0,0,0,2.22-7.49l-.06-2c2.31,1.1,1.36,3.32,1.53,5,.26,2.61,2.43,5.1,5,5.2,1.53.06,3.11-.36,4.57.51.51.31.8-.24,1.16-.47,3.09-2,5.92-1.11,7.26,2.45.63,1.67,1.44,2.48,3.2,1.88,2.37-.8,3.84.36,5,2.2a5,5,0,0,1,1,1.65c.28,1.81,1.43,2,2.92,1.91,3.72-.17,6.5,4.18,6.86,7.49.43,4-1.32,7.31-2.76,10.76-.22.53-.66,1-.35,1.63,1.71,3.52.77,7.1.27,10.67a4.21,4.21,0,0,1-.21.75c-.59,1.82-.56,3.25,1.27,4.62s1.48,3.76,1,5.8c-.24,1.06-.17,1.69.88,2.14,2.72,1.17,3.66,3.23,3.17,6.13-.32,1.93-.55,3.89,2.06,4.74,1,.32,1.77,3.83,1.5,4.92a3.09,3.09,0,0,0,1.73,3.38c3.5,1.91,7,4,11.16,4.2a19.71,19.71,0,0,0,9.7-2.32c2.14-1,4.26-2.14,6.31-3.34,1.81-1.06,2.57-3.08,3.55-4.76a43.4,43.4,0,0,0,3-7.14c.79-2.2.42-2.73-1.77-3.47a11.91,11.91,0,0,1-3.85-1.84C238,84.23,231.27,79,228.7,70.29a52.43,52.43,0,0,1-2.21-20.12c.58-5.94,3.25-10.8,6.56-15.54A36.47,36.47,0,0,1,243.17,24.3c4-2.57,8.48-3.79,12.94-5.14,5.75-1.75,11.58-1.09,17.35-.59,3.86.34,7.46,2.06,10.78,4.11,9.19,5.68,12.54,14.71,14,24.76a9.23,9.23,0,0,1-.62,5c-.62,1.48.22,2.91.83,4,3.58,6.61,4.24,13.75,4.26,21.05q0,5.46.09,10.9c.07,4.91-1.22,9.57-2.48,14.24-1,3.49-1.92,7-2.85,10.46A60.71,60.71,0,0,1,291.07,128a99.66,99.66,0,0,1-9.15,13.46c-3.72,4.51-7.7,8.71-12.89,11.6-2.76,1.53-2.84,2.08-.89,4.59.94,1.19,2,2.27,3.05,3.39.42.46.82.11,1.23,0,1.27-.49,2.59-.87,3.8-1.48,3-1.53,5.92-.51,8.84.28-.19,1-1.06.79-1.7.94a41.56,41.56,0,0,0-9.15,3.13c-1,.48-.94,1.06-.61,1.89.89,2.29,1.69,4.61,2.62,6.88a40.29,40.29,0,0,1,3,20.31c-.13,1.13,0,3-1.33,3-1,0-.78-1.95-1.08-3s-.24-2.19-.46-3.26a116,116,0,0,0-6-19.21c-1.41-3.51-4.62-5.52-7-8.19a3.54,3.54,0,0,0-.58-.52c-.66-.42-.91-1.73-1.92-1.26a3.09,3.09,0,0,0-1.38,2.39,24.86,24.86,0,0,1-1.12,4c-.7-.12-.51-.61-.52-.94-.13-4.34-.24-8.68-.37-13,0-.72-.17-1.61.79-1.7,3.77-.33,6.21-3,9-5A56.19,56.19,0,0,0,278.62,136c4.65-5.62,9.38-11.18,12.07-18.11,1.79-4.64,3.13-9.42,4.53-14.18a111.63,111.63,0,0,0,4-16.72c.54-4,.07-8.14.29-12.21.2-3.5-1.26-6.58-2.06-9.82a8.65,8.65,0,0,0-1.16-2c.26-1.55.07-2.92-1.56-3.68,0-.2-.07-.39-.09-.58a8.89,8.89,0,0,0-6.09-7.54A16.8,16.8,0,0,1,283,47.66a2.59,2.59,0,0,0-2.86-.59c-2.75,1-5.84.32-8.54,1.62a11.13,11.13,0,0,0-4.87,3.69c-1.57,2.42-1.1,4.1,1.75,4.72,1.74.38,3.55,1.36,5.44.29a2.11,2.11,0,0,1,1.34,0c3.35.75,6.71,1.47,10,2.33a3.09,3.09,0,0,1,2.58,2c-8.31-3-14.82-.8-19.79,6.08l-.95,1.48a5.22,5.22,0,0,0-1.35,4.62c.13,1.12.57,2.63,2,2.87,1.85.33,3.37-.76,4.62-2a10.34,10.34,0,0,0,2.1-3,5.94,5.94,0,0,1,6.63-3.58c2,.22,4,.55,5.93.84a1.37,1.37,0,0,1,1.18,1c-3.14-.28-5.57,1.54-8.37,2.06a1.58,1.58,0,0,0-1.47,1.52h0a.6.6,0,0,0-.41.79v0c-2.72,2.6-3.62,8.22-1.82,11.44,1.13,2,2.13,2.06,3.42.15,1-1.51,2-3,3.07-4.49a2.21,2.21,0,0,1,2.7-1.11c-2.42,3.2.86,4.14,2.24,5.88.31.38,1,.59.7,1.23s-.93.63-1.52.63c-.33,0-.74,0-.95-.11-2.22-1.72-3.07-.52-3.87,1.55a3.88,3.88,0,0,1-3.31,2.4c-1.92.24-2,2.18-2.85,3.37-.73,1-1.23,1.39-1.81,0a6.89,6.89,0,0,1,1.21-3.44c.32-.53.45-1.07-.14-1.55s-.74.24-1.1.36c-1.74.6-3.5,1.56-5.27,1.6-3.49.07-6.93.85-10.45.47-1.2-.13-2.37-.68-3.61-.39,0-.07-.07-.15-.11-.23s0,.1,0,.12a.4.4,0,0,0,.16.08l-.06,4.13c-1.11,1.55-1.56,3.4-2.32,5.11a19.14,19.14,0,0,1-6.12,8.1c-1.82,1.34-3.62,2.73-5.37,4.16-2.81,2.3-6.25,2.51-9.6,3.11-6,1.07-11.21-1.23-16.13-4a9.13,9.13,0,0,1-4.41-6.56c-.22-1.47-1.25-2.69-1.25-4.24,0-.26-.24-.69-.61-.54a1.16,1.16,0,0,0-.48.77c-.23,1.08.45,2,.66,3,.31,1.59.28,3-1.28,3.91a1.24,1.24,0,0,0-.54,1.66,21.51,21.51,0,0,1,.56,4.22,8.59,8.59,0,0,1-6.47,9.14c-.64.16-.94.25-1.06,1a7.79,7.79,0,0,1-9.08,6.28,25.88,25.88,0,0,1-6.42-2.05c2.25-.33,4.2-.11,6.11-.57,3.66-.87,5.45-2.5,6-6.17.15-1,.46-1.67,1.51-1.89a6.19,6.19,0,0,0,1-.48c6.06-2.83,6.86-9.29,1.69-13.62-.19-.17-.44-.3-.34-.73.87-.28,1.69.3,2.56.3,2.65,0,3.31-.91,2.37-3.35-.44-1.15-2.13-2.14.28-3.55,1.28-.74,1.26-3.32.34-5.08s-2.66-1.81-4.37-1.75a3.9,3.9,0,0,0-.57.13l0,0c0-2.38,1-4.67.47-7.11a6.28,6.28,0,0,0-1.86-3.09c-.49-.53-.91-.21-1.39,0s-1,.62-1.42.12.21-.92.53-1.28c2.2-2.51,3.17-5.59,4.09-8.7a4.8,4.8,0,0,0-.37-3.37c-.44-1-1-1.42-2.08-1-.44.19-.94.64-1.38.05a1.38,1.38,0,0,1,0-1.49c.7-1.31,1.45-2.59,2.21-3.87,2-3.39,3.43-6.93,3.15-11-.1-1.45-.53-2.67-2-2.88s-3.45-.6-4.47,1.34c-.32.6-.39,1.61-1.36,1.18s-.29-1.25-.23-1.91.11-1,.17-1.52C195.84,46.49,195.45,45.15,193.71,44.37ZM262.25,87.7a67.32,67.32,0,0,0,8.09-1.45c1.76-.5,1.14-1.61,1-2.56-.27-1.42-1.2-.46-1.8-.3a31.6,31.6,0,0,1-9,1.43,54.07,54.07,0,0,1-8.46-1.07c-4.51-.87-8.24-3.18-11.76-6-.43-.34-.82-1.19-1.37-.76s0,1.19.4,1.65a24.82,24.82,0,0,0,8.6,6.16C252.21,86.86,257,87.39,262.25,87.7Zm3.69-62.27a3.05,3.05,0,1,0,3,3.14A3,3,0,0,0,265.94,25.43ZM252.22,49.55a3.06,3.06,0,1,0-3.15,3A3.06,3.06,0,0,0,252.22,49.55Zm-11.56-6.73a3.05,3.05,0,1,0-3.12-3A3,3,0,0,0,240.66,42.82Zm25.57.09a3.05,3.05,0,1,0-3.12,3A3,3,0,0,0,266.23,42.91ZM252.3,38.15a3.05,3.05,0,1,0-3.07-3.07A3.05,3.05,0,0,0,252.3,38.15Zm29.89-8.89a3.05,3.05,0,1,0-3.11,3.05A3,3,0,0,0,282.19,29.26ZM237,56.19a3.05,3.05,0,1,0,3.14,3A3,3,0,0,0,237,56.19Zm46.87-14.1a3.79,3.79,0,0,0,3.25,3.06,3.05,3.05,0,1,0-3.25-3.06ZM257.45,78.64a3.05,3.05,0,1,0,0-6.1,3.05,3.05,0,0,0,0,6.1Zm4.34-17.3a3,3,0,0,0-6-.14,3,3,0,1,0,6,.14ZM247.16,63a3,3,0,1,0,3,3A3,3,0,0,0,247.16,63Z"/><path class="cls-3" d="M84.77,87.29h-.72c-2.38-1.6-3.57-1.06-4.12,1.86-1.23,2-.32,3.92.8,5.41C82,96.22,83.51,97.87,86,97.9c1,0,1,.4.58,1.23-.77,1.39-1.85,2.8-.75,4.5.79,1.22,1.71,2.17,3.3,1.1.57-.37,1.31-.63,1.77,0s-.4.83-.64,1.25c-1.74,2.94-1.19,7.23,2.16,8.91.47.23.94.44,1.41.65,1.19.55.86,1.09,0,1.6-.34.19-.71.32-1.06.49-.63.31-1.48.51-1.23,1.46a1.76,1.76,0,0,0,1.88,1.38c.45,0,.89-.16,1.34-.18,1.78-.08,2.63,1,2,2.7a1.5,1.5,0,0,0,.21,1.44,12.67,12.67,0,0,1,1.63,6.12,15.86,15.86,0,0,0,1.75,6.33c.23.52.45,1.23,1.12,1.19s.47-.81.68-1.25a1.3,1.3,0,0,1,1-.81c.17,1.86.49,3.61.82,5.36.61,3.22,2,4.71,5.48,5.4,2.09.41,4.28-.8,5.75-3.17.22-.36.25-.88.77-1a1.61,1.61,0,0,1,0,1.49,10.78,10.78,0,0,1-4.51,5.43c-4,2.25-8,.58-10-4.38-1.08-2.64-3.59-2.89-5.58-4-.71-.4-.85.38-.79.9a3.4,3.4,0,0,1-2,3.62,3,3,0,0,0-1.53,3.12c.26,2-.47,3.44-2.56,3.94-1.18.29-1,1.22-.94,2,.17,1.68.49,3.34.64,5a9.3,9.3,0,0,1-1.85,6.41C83,171.39,79.34,176.8,76,182.44c-1.17,2-1.85,4.27-2.89,6.35-3.22,6.42-6.69,12.72-9.69,19.24-2,4.39-3.48,9.05-5.09,13.63-2.33,6.57-4.14,13.31-6,20-1,3.53-2.31,7-3,10.58-.11.54-.31,1.23-1,1.21s-1-.72-1-1.25c-.07-1.81-1.14-2-2.61-1.94-1.92.08-3.85,0-6.37,0,2.86,2.63,6.55,3,8.7,5.93a13.51,13.51,0,0,1-9.23-1.53,8.12,8.12,0,0,0-6.11-1.09A8.85,8.85,0,0,0,33.37,259c1.81,2.38,3.8,4.63,7.33,3.92a4.5,4.5,0,0,1,1.16,0c.69,0,1.64-.17,1.87.63s-.78.87-1.24,1.27c-2.83,2.49-6.42,2.82-9.9,3.46-1,.19-2,.44-3,.66a1.29,1.29,0,0,0-1,.84c-.78,2,1.48,4.55,3.44,5.26,2.71,1,5.38.93,8.12,1.15a5.4,5.4,0,0,0,4.9-2.05c.65-.76,1.53-1.93,2.52-1.23s.34,1.95-.08,2.9a23.19,23.19,0,0,1-3.21,4.85,47.09,47.09,0,0,0-2.84,4.63c-.75,1.22-.14,2.34.43,3.28s1.39.05,2.12-.08c6.89-1.26,11.92-6,17.62-9.45a18.67,18.67,0,0,1,4.5-2.22c1.89-.54,3.27.34,4.29,2a39.29,39.29,0,0,0,7.71,9.66,2,2,0,0,0,2,.32c.72-.28.39-1,.43-1.55a14.23,14.23,0,0,0-1.13-7c-.8-1.77-.5-3.72-.31-5.57.53-5,2.4-9.63,4-14.34a19.09,19.09,0,0,1,4.83-7.64c3.31-3.2,5.6-7.32,9.25-10.17,1.77-1.39,3.22-3.24,5.49-3.93.79-.24.86-.66.6-1.46-.77-2.4-1.54-4.82-2.4-7.16-1.71-4.6-2.4-9.41-3.61-14.11a3.93,3.93,0,0,1-.06-1.53c.08-.53.1-1.29.9-1.28.64,0,.7.66.89,1.13,2.24,5.53,3.63,11.33,5.46,17,.81,2.5,1.91,4.91,2.89,7.34,1.07,2.65,1.44,5.49,2.67,8.06,1.1,2.29,2,4.67,3.27,6.88.55,1,.63,2,1.12,3,4.13,8.15,9.87,14.75,18,19.17,2.55,1.4,4.51,3.65,7.23,4.89,1.71.78,3.49,1.37,5.18,2.2.42.22,1.22.11,1.11.82s-1,.69-1.45.6c-2.4-.45-4.85-.13-7.2-1.46a97.7,97.7,0,0,0-13.36-6.23c-1.57-.6-2.74-1.85-4.35-2.86-.15,2.22-.27,4.2-.4,6.17a20.59,20.59,0,0,1-2,7c-.44,1-1.17,1.49-2,.27.4-5.49-.19-11,.62-16.5a1.93,1.93,0,0,0-.83-1.67c-3.85-3.7-6.23-8.4-8.62-13.05A38.44,38.44,0,0,1,103,248c-.35-1.32-1.15-.67-1.75-.21a54.31,54.31,0,0,0-8.36,7.82,40.8,40.8,0,0,0-7.13,13.19c-.85,2.4-2,4.68-3,7a3.07,3.07,0,0,0,0,2.65c1.93,2.69,1.8,5.7,1.79,8.74,0,5.55-.27,5.81-5.83,5.64a6.62,6.62,0,0,1-4.81-2.63c-2-2.28-3.82-4.73-5.63-7.18-1.21-1.63-2.08-2-3.64-.74-4.21,3.29-8.85,6-12.77,9.69-2.35,2.22-5.53,3.08-8.62,3.71a4.89,4.89,0,0,1-5.69-3.87c-.69-3.18-1.34-6.38.94-9.32.8-1,.1-1.38-.91-1.21a19.09,19.09,0,0,1-4.07.08c-1.46-.07-3.11.55-4.27-.67-1.76-1.86-4-3.35-4.73-6a7.52,7.52,0,0,1,4.69-9.28c2.09-.67,2.34-1.93.8-4a14.13,14.13,0,0,1-2.83-6.93c-.32-2.78,1.12-4.46,3.91-4.7a20.33,20.33,0,0,1,2.34-.08,2,2,0,0,0,2.05-1,4.25,4.25,0,0,1,3.63-1.91c1.88-.07,3.77-.08,5.65-.12,1.48,0,2.54-.45,2.94-2.15,1.26-5.4,2.52-10.81,4-16.14A206.71,206.71,0,0,1,61.9,199.49c2.75-6.05,6.07-11.84,8.26-18.18,1.17-3.38,3.26-6.45,5.24-9.5q3.16-4.89,6.37-9.75c1.57-2.37,1.21-5.39,1.42-8.13s1-4.64,3.54-5.71a1.3,1.3,0,0,0,.8-1.37,4,4,0,0,1,1.74-3.33c2.53-1.65,3-4,3-6.84,0-2.16,0-4.1-2-5.64-1.23-.95-1-2.7-.63-4s-.14-1.94-1.14-2.64c-1.69-1.17-3.91-2.37-3.19-4.81a5.82,5.82,0,0,0-1.23-5.83c-.85-1.09-.45-2.65-.29-4a1.58,1.58,0,0,0-.84-1.89,5.19,5.19,0,0,1-2.78-5.7,1.67,1.67,0,0,0-1.15-2.07,7.77,7.77,0,0,1-4.6-6.7c-.4-3.68.59-6.81,4.19-8.56,1.11-.55.6-1.47.62-2.21,0-2.59.79-4.77,3.33-5.86,1.63-.69,3.33.07,5,0l0,0c.06.36.32.41.62.42.76,1.16,1.54,2.32,2.3,3.48,1,1.59.94,3.44,1.26,5.28-1.07-1.42-1.52-3.27-3.39-3.86-.54-1.11-1-2.3-2.57-2.23-1.73-.35-2.92.26-3.27,2-.58,2.94-.49,3.06,2.23,4Z"/><path class="cls-3" d="M312.87,251.26l.14-2.2c1.57,2.9,2.58,5.63,4.7,7.64a13.88,13.88,0,0,0,1.15,1c1.24.94,2.05,2.32,3.91,2.58,6.93,1,12.35-2.53,17.51-6.13A43.1,43.1,0,0,0,350.67,244c2-2.84,4.56-5.35,6.08-8.53,1.64-3.45,3.12-7,4.63-10.48,1.8-4.17,4-8.13,5.73-12.34,2.9-7.18,3.71-14.82,4.88-22.34a71.13,71.13,0,0,0,.57-20.71,12.77,12.77,0,0,0-3.09-7.2,5.18,5.18,0,0,0-3.78-1.74c-1.17,0-2,.47-1.62,1.77,1.22,4.61,0,9.13-.44,13.68-.07.77-.08,1.83-1,1.83-1.1,0-.76-1.13-.82-1.84-.53-6.43-1-12.82-6.54-17.44-1.86-1.54-4.76-1.79-6.39.06-.39.45-.55.85-.12,1.36a14.48,14.48,0,0,1,3,7.27c.55,3.68,1.41,7.43-.32,11.05-.31.66-.5,1.86-1.37,1.62s-.33-1.36-.36-2.09c-.29-6.76-2-12.83-8.25-16.62a2.1,2.1,0,0,1-.69-.67c-1-1.66-2.39-1.8-4-.93-4.53.2-4.95,1-5.49,5.5-.7,5.91-.63,11.91-2,17.72-.94,3.95-3.44,7.19-5.44,10.72v-4.22c-1.72,1.35-3.31,2.81-5.11,4-2.32,1.49-5,1.42-7.64,1.06a1.22,1.22,0,0,1-1.16-1.34c.09-.72.79-.77,1.34-.9a30.49,30.49,0,0,1,4.36-.92c1.18-.08,1.3-1.67,2.55-1.38-3.52-1.3-4.12-1.91-3.94-5.52.14-3-2.59-2.3-3.92-3.36a11.68,11.68,0,0,0-2.69-1,1.19,1.19,0,0,1-.76-1.72,1.17,1.17,0,0,1,1.68-.51c1.32.71,2.58.79,3.39-.56s.33-2.6-.44-4a3.51,3.51,0,0,0-4.09-2c-1.93.34-3.86-.6-5.78,0-.28.09-.73.12-.8-.3a1.33,1.33,0,0,1,.26-.89,3.06,3.06,0,0,1,2.29-1.33c1.67-.06,3.12-.81,4.67-1.23,1.81-.11,3.61-.33,5.31.66a3.43,3.43,0,0,1,2,3.43,14.83,14.83,0,0,1-.15,2.32,3.79,3.79,0,0,0,1.76,4.42c1.17.8.89,2.21,1.11,3.39s.33,2.43.5,3.64a1.61,1.61,0,0,0,1.48,1.55,1.63,1.63,0,0,0,1.82-.76c.74-1.21,1.62-2.34,2.47-3.48a4.18,4.18,0,0,0,.94-2.9c-.31-2.6.15-5.17,0-7.76a54.27,54.27,0,0,1,.57-10,8.19,8.19,0,0,1,8.11-7.12c1.83-.08,3.46-1,5.33-1a4.88,4.88,0,0,1,3.14.75c1,.81,1.66.54,2.57-.33,3.25-3.1,7.34-3.63,11.43-2.63a7.62,7.62,0,0,1,5.23,4.3c.34.8.66,1,1.58.65,5.29-2,8.62-.66,11.45,4.32,2.13,3.74,2.47,7.9,2.8,12a84,84,0,0,1-.79,17.44,114.06,114.06,0,0,1-3.36,16.92c-.91,3.21-1.84,6.42-3,9.53a57.67,57.67,0,0,1-2.64,5.57c-2.27,4.51-3.86,9.29-6.4,13.7a62.83,62.83,0,0,1-19.15,20.82c-1.39,1-2.78,1.92-4.15,2.9a23.14,23.14,0,0,1-10.8,4.11c-5,.6-10.1-1.56-12.69-8.53C314.06,254,313.44,252.63,312.87,251.26Z"/><path class="cls-3" d="M157.31,378.83a7.71,7.71,0,0,1,4.39-3.22c2.52-.63,4.5-2.19,6.74-3.29,8.8-4.33,15.83-10.89,22.8-17.58,4.81-4.62,9.13-9.71,13.83-14.44a39,39,0,0,0,3.29-4.32,2.84,2.84,0,0,0,.6-1.81,58.13,58.13,0,0,0-.25-8.13c-.28-1.82-1.37-2.43-3-3-3.37-1.27-7,.06-10.46-1.55.17,1.29,1.22,1.83,1.53,2.79-4.32-.46-6.5-2.38-7.45-6.28a42.88,42.88,0,0,1-.92-16.49,23.08,23.08,0,0,1,3.88-9.3c-10.61.4-21.34,1.77-32.07-1.1,2.87-.46,5.72-1,8.6-1.34a26.7,26.7,0,0,0,5.32-1c3.38-1.05,6.92-.82,10.39-.91a20.61,20.61,0,0,0,4.95-.85c4.1-1.13,8.2-2.33,12.3-3.4,7.08-1.85,13.54-4.93,20.14-7.9,4.89-2.21,9.9-4.15,14.55-6.83a75.15,75.15,0,0,0,10.63-7.45,95.35,95.35,0,0,0,13-13.24,24.17,24.17,0,0,0,1.67-2.83c.24-.38.6-.83,1.09-.52s.33.81.11,1.23a72.36,72.36,0,0,1-3.72,7c-1.75,2.63-3.88,5-5.82,7.51-4.67,6-11,10-17.45,13.74-2.93,1.71-5.69,3.75-8.53,5.64-1.15.76-1.67,1.57-.88,3a3.26,3.26,0,0,1-.78,4.07c-1.27,1.23-2,3.77-1.31,4.89,1,1.5,2.54,1.28,4,1.27.74,0,1.68-.92,2.11-.14s-.6,1.46-1,2.2a6.65,6.65,0,0,1-4.55.25c-4.6-1.21-4.77-5.08-3.51-8.49.1-.29.44-.5.53-.79.22-.69,1.11-1.32.42-2.12s-1.6-.57-2.53-.37a36.77,36.77,0,0,0-7.24,2.68c-3.42,1.5-7.15,1.65-10.63,2.85a3.3,3.3,0,0,0-2,1.3c-2.49,4.22-4.8,8.48-6,13.35a21.77,21.77,0,0,0,0,10.09c.62,2.8,1.66,3.4,5.25,3.84,2.41.29,4.83-.05,7.28.69,3.5,1.05,6.58,4.36,6.66,8,.06,2.91.07,5.83,0,8.74,0,2.69-1.71,4.65-3.5,6.28-3.79,3.45-7,7.53-10.86,10.82-6.67,5.64-12.62,12.13-19.89,17.05a63.29,63.29,0,0,1-16.36,8.33C161,378.37,159.4,379.87,157.31,378.83Z"/><path class="cls-3" d="M154.52,29.89a51.2,51.2,0,0,0,4.57,2.79c3.77,1.82,4.77,5.2,5.1,8.89.14,1.51-.77.1-1.17.23h0l-.36-.49a6.55,6.55,0,0,1-.41-.66c-1.79-3.89-5.11-5.72-9-6.76a2.75,2.75,0,0,0-2.09,0c-2.22,1.45-5.5,1.15-6.8,4.16a1.23,1.23,0,0,1-1.4.82c-.63-.16-.81.31-1,.69A14.93,14.93,0,0,0,140.74,47c.47,3.92,1.79,7.66,2.17,11.58-.09,1.68-1.08,2.08-2.55,1.77-.17-.34-.57-.79-.47-1,.92-2.11-.64-3.53-1.33-5.18a12.74,12.74,0,0,0-8.25-7.31c-.58-.19-1.19-.55-1.83-.16,1.15,3.68,2.14,7.4-1,10.52-2.32,2.27-5.23,2-8,.86-3.75-1.61-4.22-4.8-3.51-8.66-1.62,1.27-2.9,2.29-3.65,4-1.49,3.45-1.46,7-1.2,10.64a11.68,11.68,0,0,0,1.14,4.69,23.23,23.23,0,0,0,4.55,5.75c.15.4.55,1,.42,1.18a1.1,1.1,0,0,1-1.4.2c-2.65-1.92-6.26-2.57-7.67-6.15A14.43,14.43,0,0,1,107,64.51c0-2.14,0-4.28,0-6.42a15.32,15.32,0,0,1,3.31-8.75c1.63-2.27,2.46-4.46,1.94-7.17.08-.37.16-.74.25-1.2,1.15.78.87,2.2,1.73,3.12,1.31-3.29,4.25-3,6.91-3.09,4.42-.1,8.44,1.63,12.47,3.2a8.72,8.72,0,0,1,1.73,1.33,11.44,11.44,0,0,0,1.08-3.5c.26-2.6,2.13-4.33,3.42-6.35a3.26,3.26,0,0,0,.54-2.89,5.65,5.65,0,0,1,.44-4.15c.19-.41.36-.9.93-.83s.6.45.75.81a6.63,6.63,0,0,0,.47,1.27c.41.6-.24,2.09,1.09,1.79s2.78-.45,2.58-2.47a5.76,5.76,0,0,1,1.2-3.62c.24-.38.48-1,1-.77.33.13.53.7.66,1.12a5,5,0,0,1-.08,2.49c-.2,1.05-.11,1.55,1.24,1.35A21.77,21.77,0,0,1,154.52,29.89Z"/><path class="cls-3" d="M118.44,352.3a26.46,26.46,0,0,0-2.16,6.95,4.16,4.16,0,0,1-.65,2c-.8.06-1.09-.36-1.3-1.1a11.45,11.45,0,0,1,.35-8.28c1.89-4.21,3.79-8.18,8.24-10.54,3.32-1.76,5.46-5,7.48-8.18.4-.61.32-1-.23-1.43a29.09,29.09,0,0,0-6.17-4.64,1.64,1.64,0,0,0-1.77,0c-2.19,1.24-3.54.76-4.84-1.56.26-.28.49-.76.78-.8,3.39-.39,4.7-2.82,5.65-5.64.17-.51.43-1,1.07-.91s.73.7.58,1.21c-1.32,4.45,2.07,6.45,4.91,7.79a72,72,0,0,0,13.53,5c2.63.64,5.14,1.7,7.93,1.27a.86.86,0,0,1,1.08.6c.15.68-.4.84-.9,1a15.93,15.93,0,0,1-12.09.54,17.9,17.9,0,0,0-2.07-.52c-2-.47-3.75-.49-4.71,1.93-.71,1.8-2.43,2.83-4,3.86a14.79,14.79,0,0,0-2.87,2.59,2.58,2.58,0,0,0-1.31.94c-1.87.95-3.86,1.77-4.44,4.12C118.53,349,117.87,350.33,118.44,352.3Z"/><path class="cls-3" d="M270.79,257.31c-.05.55.23,1.2-.49,1.54s-1-.38-1.4-.7c-2.2-1.66-2.39-4-2.16-6.45a14.35,14.35,0,0,1,9.83-12.93,18.37,18.37,0,0,1,8.64-.69c3.28.43,6.57.16,9.86.52,1.59.17,3.36-.51,5.08-.08,2.93.73,5.88,1.43,7.83,4.06.48.65,1.26,1.27.4,2.18-3.93-2.16-8.34-2.73-12.64-3.17a39,39,0,0,0-14,.64,14.55,14.55,0,0,0-11,12.77A16.3,16.3,0,0,0,270.79,257.31Z"/><path class="cls-3" d="M120.19,370.52c-1.17-4-1.24-8,.75-11.85a18.34,18.34,0,0,1,11.56-9.33c.79-.24,2-.52,2.44.5s-.64,1.58-1.33,2.13c-2.41,1.92-5.08,3.52-7,6a12.31,12.31,0,0,0-2.53,11.2,4.55,4.55,0,0,1-.8,3.69C121,373.72,120.69,372,120.19,370.52Z"/><path class="cls-3" d="M95.57,71.22l.23.3c.42.57,1.59,1,1,1.8s-1.29-.33-1.91-.63a19.85,19.85,0,0,1-2.47-1.47c-.54-.35-.94-.32-1.26.25l-1.53.19-.75-.48A5.53,5.53,0,0,1,90,64.46c1-.88.87-1.53.56-2.63-1.38-4.95-1.73-9.87.81-14.64A3.72,3.72,0,0,1,94.83,45c.55.73-.06,1.12-.41,1.66-.46.72-1.47,1.19-1.18,2.3l-.69,4.63a3.49,3.49,0,0,0,.27,3.69c.86,2.94,1.44,6,4.24,7.94.68.48,2.12,1.51.11,2.38a12.75,12.75,0,0,0-1.85-1c-1.74-.59-2.49,0-2.51,1.88S94,70.93,95.57,71.22Z"/><path class="cls-3" d="M255.06,299.5c-.09-.85.53-1.08,1.14-1.34a19.83,19.83,0,0,1,2.13-.92c4.71-1.44,6.05-5,6.14-9.46a7.32,7.32,0,0,0-1-2.91c-.24-.61-1-1.39-.1-1.86s1.2.46,1.64,1,.42,1.91,1.65,1.93c1.53,0,3.22.47,4.51-.61,1.72-1.45,3.52-2.87,4.41-5.08.3-.73.4-1.71,1.51-1.79,1,4.87-3.12,10.14-8.14,10.5-.84.06-1.55-.11-1.62,1.23-.27,5.15-3.84,8.83-9.09,9.45C257.22,299.77,256.1,300.18,255.06,299.5Z"/><path class="cls-3" d="M232.34,298.69c.73-.8,1.39-.28,2.07.1,3.47,2,9.07.84,11.48-2.27a4.69,4.69,0,0,0,1-2.86,17.73,17.73,0,0,1,.22-2.3c.06-.39.27-.81.69-.86a.76.76,0,0,1,.76.74c0,2.24,1.09,4.36.73,6.64-2.13,2.2-4.33,4.28-7.6,4.65a13,13,0,0,1-8.47-2.16C232.64,300,232.53,299.3,232.34,298.69Z"/><path class="cls-3" d="M272.61,271a2.43,2.43,0,0,1-2.82-1.1c-.58-.91-1.91-.59-2.8-1.1-.64-.37-1.69-.65-1.33-1.59s1.28-.43,2-.14c2.89,1.2,3.94,1.08,5.16-.42s1.65-5.12-.16-6.6c-.64-.53-1.23-1.23-.59-2.18,4.7.4,6,5.22,4.76,8.54A7.58,7.58,0,0,1,272.61,271Z"/><path class="cls-3" d="M110.58,309.27c.61-.19,1.21-.23,1.41.53s.65,1.68,1.6,1.63c1.14-.07,1.75-1,2.11-2a11.74,11.74,0,0,1,1.15-2.85c.19-.26.43-.55.77-.37a.87.87,0,0,1,.39.61,16.85,16.85,0,0,1-1.34,5.94c-.11.31-.74.43-1.13.65-1.34.67-2.75,1-4-.07A3.57,3.57,0,0,1,110.58,309.27Z"/><path class="cls-3" d="M103.2,44.27c2.78,1.86,3.25,2.4,4.09,4.79a18.9,18.9,0,0,1-3.12-1.68,3.32,3.32,0,0,0-3.77-.52c-1.41.65-1.67,1.84-1.54,3.23.06.57.08,1.15.13,1.9-.81-.48-1-1.27-1.48-1.89.53-1.2-.06-2.52.37-3.74a4.37,4.37,0,0,1,4.23-1.61C102.55,44.82,103,44.87,103.2,44.27Z"/><path class="cls-3" d="M111.23,289.78c.93-.29,1.27.15,1.29,1,0,.61-.18,1.27.34,1.78a3.47,3.47,0,0,0,2.25,2.57c.67,1.71.52,1.88-1.73,2C110.71,295.45,110,293.16,111.23,289.78Z"/><path class="cls-4" d="M97.88,46.36c-.43,1.22.16,2.54-.37,3.74-1.8,1-3.14.32-4.27-1.17-.29-1.11.72-1.58,1.18-2.3.35-.54,1-.93.41-1.66C96,45,97.2,45.17,97.88,46.36Z"/><path class="cls-3" d="M289.83,163a10.3,10.3,0,0,1,3.93-1c1.23.37,2.83-.54,3.7,1.07-2.55.63-5,1.62-7.67,1.89C289.8,164.32,289.82,163.66,289.83,163Z"/><path class="cls-4" d="M169.36,24.89l.06,2c-2.67,1.84-3.45,1.42-4.39-2.33C166.92,23.08,167.7,23.15,169.36,24.89Z"/><path class="cls-3" d="M112.15,298.67c1,.93.22,3.06,2.22,3.33a2,2,0,0,1-1.52,1.73C110.45,302.07,110.28,300.83,112.15,298.67Z"/><path class="cls-3" d="M97.52,94.82c5.51-4.48,8.39-9.71,6.18-16.85a6.94,6.94,0,0,1,3,5.4c.43,4,1.79,5,5.84,4.24,6.73-1.23,12.66-4.33,18.59-7.52,8.1-4.35,16.21-8.73,24.92-11.79a76.18,76.18,0,0,1,8.68-2.08,57.39,57.39,0,0,1,11.89-1.54,1.68,1.68,0,0,0,1.53-.68c.37-.68-.16-1.23-.59-1.71-1.05-1.15-2.14-2.26-3.19-3.4a.9.9,0,0,1-.1-1.13c5.4,4.28,11.66,6.15,18.46,6.7-1.53,1.41-3.48,1.6-5.42,1.72a5.87,5.87,0,0,0-5.88,6.43c.08,4,1.31,7.92,1.75,11.9.5,4.47,1.4,8.95-.2,13.46-1.23,3.47-3.54,6.14-5.82,8.85a40.46,40.46,0,0,1-13.71,10.3c-3.35,1.64-6.92,2.51-10.27,4a10.59,10.59,0,0,1-4.58.73c-2.72,0-5.45-.08-8.17,0A25.12,25.12,0,0,1,122.64,116c-3-2.51-5.7-5.28-7.26-9.15-2-5-4.24-9.91-8.77-13.3-.87-.65-1.31-.89-2.21,0C102.25,95.63,100.75,95.87,97.52,94.82Z"/><path class="cls-4" d="M336.78,159.75c1.61-.87,3-.73,4,.93a2.1,2.1,0,0,0,.69.67c6.3,3.79,8,9.86,8.25,16.62,0,.73-.43,1.88.36,2.09s1.06-1,1.37-1.62c1.73-3.62.87-7.37.32-11.05a14.48,14.48,0,0,0-3-7.27c-.43-.51-.27-.91.12-1.36,1.63-1.85,4.53-1.6,6.39-.06,5.57,4.62,6,11,6.54,17.44.06.71-.28,1.83.82,1.84.94,0,.95-1.06,1-1.83.46-4.55,1.66-9.07.44-13.68-.35-1.3.45-1.8,1.62-1.77a5.18,5.18,0,0,1,3.78,1.74,12.77,12.77,0,0,1,3.09,7.2,71.13,71.13,0,0,1-.57,20.71c-1.17,7.52-2,15.16-4.88,22.34-1.71,4.21-3.93,8.17-5.73,12.34-1.51,3.51-3,7-4.63,10.48-1.52,3.18-4,5.69-6.08,8.53a43.1,43.1,0,0,1-10.39,10.14c-5.16,3.6-10.58,7.1-17.51,6.13-1.86-.26-2.67-1.64-3.91-2.58a13.88,13.88,0,0,1-1.15-1,26.58,26.58,0,0,1-.55-7.49c.49-5.6,1.94-10.8,5.85-15.09a10.85,10.85,0,0,0,2.88-4.31l0-.06a.6.6,0,0,1,.14-.21,29.35,29.35,0,0,0,3.33-4.57c1.55-1.28,2.17-3.17,3.11-4.85,2.68-4.77,5.43-9.48,6.45-15,.86-4.69,1.36-9.32.45-14,.29-3.65-1-7.12-1.26-10.71a24.84,24.84,0,0,0-1.1-6.46c-.24-.67-.52-1.27-1.25-.27-.85,1.16-1.93,1.52-3.12.42a1.79,1.79,0,0,1-.26-2.73c1.07-1.26,2.18-1.17,3.3,0a1.94,1.94,0,0,0,.54.26,6.08,6.08,0,0,0,.15-2.7c-.07-1.18-.48-2.13-1.95-2.15a1.55,1.55,0,0,1-1.55-1.46c-.12-.8-.12-1.81.7-2.05C335.41,162.64,335.81,161,336.78,159.75Z"/><path class="cls-1" d="M116.79,74.54a23.23,23.23,0,0,1-4.55-5.75,11.68,11.68,0,0,1-1.14-4.69c-.26-3.59-.29-7.19,1.2-10.64.75-1.73,2-2.75,3.65-4-.71,3.86-.24,7.05,3.51,8.66,2.76,1.19,5.67,1.41,8-.86,3.17-3.12,2.18-6.84,1-10.52.64-.39,1.25,0,1.83.16a12.74,12.74,0,0,1,8.25,7.31c.69,1.65,2.25,3.07,1.33,5.18-.1.23.3.68.47,1-1.53.82-1.66,2.28-1.83,3.79-.67,6.16-6.3,11.18-12.38,11.82A18.36,18.36,0,0,1,116.79,74.54Z"/><path class="cls-1" d="M142.91,58.62c-.38-3.92-1.7-7.66-2.17-11.58A14.93,14.93,0,0,1,142,39.55c.15-.38.33-.85,1-.69a1.23,1.23,0,0,0,1.4-.82c1.3-3,4.58-2.71,6.8-4.16a2.75,2.75,0,0,1,2.09,0c3.92,1,7.24,2.87,9,6.76a6.55,6.55,0,0,0,.41.66c0,.24.07.45.36.49h0a18,18,0,0,1,.43,10.11c-.61,2.78-1.79,5.23-4.55,6.54.3-.63.65-1.25.91-1.9,1.21-3.09.38-7-1.73-8.32-2.55-1.54-6-1-9,1.33-1.67,1.31-2.19,3.87-1.37,6.61.73,2.43,2.65,3.53,4.82,4.36A8.45,8.45,0,0,1,145,59,1.69,1.69,0,0,0,142.91,58.62Z"/><path class="cls-3" d="M131.43,148a12.42,12.42,0,0,1-3.63-4.73,4.77,4.77,0,0,1-.37-2.08c0-.52,0-1.2.48-1.38.69-.22.72.57,1,1,1,1.58,1.71,3.33,3.52,4.28a2.86,2.86,0,0,0,3.28,0c1.61-1.28,3.74-2.23,3.75-4.83a1.09,1.09,0,0,1,1-1.19c.73-.06,1,.47,1.19,1a5.74,5.74,0,0,0,2.63,3.48c2.08,1.22,5.69-.13,6.42-2.36.15-.48-.14-.71-.35-1a15.17,15.17,0,0,1-.92-1.48c-.26-.53-.5-1.14.17-1.54s1,.06,1.37.42a7.81,7.81,0,0,0,1.44,1.27c1.71.95,3,.48,4.45-1.41.52-.68,1-1.89,2-1.24s.78,1.78.31,2.82a4.87,4.87,0,0,1-5.09,3.1c-1.11-.11-1.61.14-2,1.21-1.31,4-5.81,6.52-10,2.9-.56-.48-1.1-1.07-1.74-.17-1.63,2.3-4,2.61-6.55,2.5l-1-.26a.93.93,0,0,0-.89-.21Z"/><path class="cls-3" d="M152.56,60.53c-2.17-.83-4.09-1.93-4.82-4.36-.82-2.74-.3-5.3,1.37-6.61,3-2.37,6.42-2.87,9-1.33,2.11,1.27,2.94,5.23,1.73,8.32-.26.65-.61,1.27-.91,1.9A7.19,7.19,0,0,1,152.56,60.53Z"/><path class="cls-3" d="M141,367.15c-1.39-5.72,2.56-8.67,6.35-11.69.59-.47,1.4-1,2.12-.49s.19,1.42,0,2.15c-.41,1.62-1.55,2.81-2.43,4.16a8.54,8.54,0,0,0,.32,10.54c1.48,2,1.31,3.6,0,5.45-1.06,1.53-2.48,1.63-3.59.11C141.61,374.36,140.24,371.09,141,367.15Z"/><path class="cls-4" d="M254.59,92.35c1.24-.29,2.41.26,3.61.39,3.52.38,7-.4,10.45-.47,1.77,0,3.53-1,5.27-1.6.36-.12.52-.82,1.1-.36s.46,1,.14,1.55A6.89,6.89,0,0,0,274,95.3c-2.69,1-5.28,2.37-8.19,2.71-1.56.18-6.94,1.28-11.19-1.56l.06-4.13Z"/><path class="cls-3" d="M176,140.4a30,30,0,0,1-3.29-.21,4.59,4.59,0,0,1-3.45-4.61c0-.52,0-1.09.56-1.34s1.11.21,1.5.63a8.2,8.2,0,0,1,.65,1c1.28,1.87,3,2,4.42.18a7.12,7.12,0,0,0,1.68-4.86,11.44,11.44,0,0,1,.06-1.94c.06-.57.07-1.29.77-1.43.88-.17,1,.66,1.24,1.22a8.49,8.49,0,0,1,.72,2c.21,1.62.93,2.19,2.5,1.51.41-.18.9-.33,1.25.13s.07,1-.26,1.4-.62.69-.9.66c-3.15-.36-3.47,2.58-5,4.17C177.37,138.88,176.71,139.68,176,140.4Z"/><path class="cls-3" d="M339.39,191.06c.91,4.71.41,9.34-.45,14-1,5.55-3.77,10.26-6.45,15-.94,1.68-1.56,3.57-3.11,4.85.18-2.94,1.92-5.3,3.07-7.86,3.45-7.64,6.16-15.45,6.31-24C338.77,192.48,338.14,191.43,339.39,191.06Z"/><path class="cls-3" d="M325.89,229.81a10.85,10.85,0,0,1-2.88,4.31c-3.91,4.29-5.36,9.49-5.85,15.09-1.06-.28-.79-1.19-.84-1.89a30.75,30.75,0,0,1,1-8.21,4.83,4.83,0,0,1,1.51-2.43C321.19,234.38,323.54,232.1,325.89,229.81Z"/><path class="cls-4" d="M85.78,79.84c1.57-.07,2,1.12,2.57,2.23a7.67,7.67,0,0,1-.7,1.37c-.55.68-.64,1.14.21,1.7a1.83,1.83,0,0,1,1,2.28,2.18,2.18,0,0,1-2,1.6,2.11,2.11,0,0,1-2.06-1.73c0-.47,0-1,0-1.42.5-.44,1.33-.74.6-1.64C83.34,81.75,83.36,81.65,85.78,79.84Z"/><path class="cls-4" d="M95.57,71.22c-1.56-.29-2.79-.85-2.76-2.77s.77-2.47,2.51-1.88a12.75,12.75,0,0,1,1.85,1C97.68,69.25,96.45,70.15,95.57,71.22Z"/><path class="cls-3" d="M136.87,373.89A2.22,2.22,0,0,1,134.7,376a2.13,2.13,0,1,1,.06-4.25C136,371.74,136.72,372.58,136.87,373.89Z"/><path class="cls-3" d="M264.71,236.94c1.31.18,2.13.86,2.15,2.14a2,2,0,0,1-2,2.15,2,2,0,0,1-2.21-2.17A2.19,2.19,0,0,1,264.71,236.94Z"/><path class="cls-3" d="M187.48,282.68c-.16,1.31-.83,2.17-2.11,2.16a2,2,0,0,1-2.18-2.22,2,2,0,0,1,2.15-2A2.22,2.22,0,0,1,187.48,282.68Z"/><path class="cls-3" d="M99.87,236.72a2.08,2.08,0,0,1-2,2.18,2.12,2.12,0,1,1-.15-4.24A2.09,2.09,0,0,1,99.87,236.72Z"/><path class="cls-3" d="M75.08,279.45c-1.3-.22-2.11-.93-2.08-2.21a2,2,0,0,1,2.09-2.09,2,2,0,0,1,2.15,2.25A2.2,2.2,0,0,1,75.08,279.45Z"/><path class="cls-3" d="M255.25,232.71c-.2,1.34-.86,2.21-2.1,2.3a2,2,0,0,1-2.21-2,2,2,0,0,1,2.08-2.29C254.31,230.73,254.9,231.68,255.25,232.71Z"/><path class="cls-3" d="M243.54,275c-.18,1.26-.87,2.1-2.15,2.08a2.12,2.12,0,1,1,.11-4.24A2.06,2.06,0,0,1,243.54,275Z"/><path class="cls-3" d="M203.2,222.93c1.31.17,2.13.86,2.15,2.13a2,2,0,0,1-2,2.16,2,2,0,0,1-2.22-2.18A2.18,2.18,0,0,1,203.2,222.93Z"/><path class="cls-3" d="M205.22,332.4a2.2,2.2,0,0,1-2.16-2.07,2,2,0,0,1,2.16-2.22,2,2,0,0,1,2.07,2.1C207.31,331.49,206.49,332.18,205.22,332.4Z"/><path class="cls-3" d="M185.53,333.27a2.08,2.08,0,0,1-2,2.19,2.12,2.12,0,1,1-.15-4.24C184.64,331.18,185.33,332,185.53,333.27Z"/><path class="cls-3" d="M195.35,341.74c-1.15-.26-2.07-.92-2-2.18a2,2,0,0,1,2.29-2.11,2,2,0,0,1,1.95,2.23A2.13,2.13,0,0,1,195.35,341.74Z"/><path class="cls-3" d="M267.11,226.49a2.19,2.19,0,0,1-2.15-2,2,2,0,0,1,2.15-2.25,2,2,0,0,1,2.09,2.09C269.22,225.57,268.42,226.27,267.11,226.49Z"/><path class="cls-3" d="M253.68,268.36c-.27,1.2-.94,2.12-2.2,2.07a2,2,0,0,1-2.1-2.3,2,2,0,0,1,2.23-1.94A2.15,2.15,0,0,1,253.68,268.36Z"/><path class="cls-3" d="M187.48,348.28c1.42.17,2.25.84,2.29,2.12a2,2,0,0,1-2,2.19,2.05,2.05,0,0,1-2.26-2.15C185.51,349.17,186.48,348.57,187.48,348.28Z"/><path class="cls-3" d="M285.75,224.16a2.2,2.2,0,0,1-2.1-2.11,2,2,0,0,1,2.21-2.18,2,2,0,0,1,2,2.15C287.87,223.29,287.05,224,285.75,224.16Z"/><path class="cls-3" d="M172.09,367.06a2.25,2.25,0,0,1-2.14-2.14,2.12,2.12,0,1,1,4.24,0C174.19,366.14,173.29,366.8,172.09,367.06Z"/><path class="cls-3" d="M163,371a2.07,2.07,0,0,1-2,2.19,2.12,2.12,0,1,1-.18-4.24C162,368.94,162.74,369.77,163,371Z"/><path class="cls-3" d="M246.09,180.86c1.2.29,2.12.95,2.07,2.21a2,2,0,0,1-2.3,2.09,2,2,0,0,1-1.94-2.23A2.16,2.16,0,0,1,246.09,180.86Z"/><path class="cls-3" d="M221,272.49c-.11,1.31-.77,2.18-2,2.23a2.12,2.12,0,1,1-.16-4.24C220,270.46,220.69,271.36,221,272.49Z"/><path class="cls-3" d="M66.53,268.09a2.2,2.2,0,0,1,2.14,2.05,2.12,2.12,0,1,1-4.23.14C64.4,269,65.22,268.3,66.53,268.09Z"/><path class="cls-3" d="M57.44,277.7c-.21,1.3-.91,2.12-2.19,2.08a2.12,2.12,0,1,1,.15-4.23A2.19,2.19,0,0,1,57.44,277.7Z"/><path class="cls-3" d="M50,282.33c-.18,1.3-.87,2.13-2.14,2.13a2,2,0,0,1-2.14-2.06A2,2,0,0,1,48,280.22,2.2,2.2,0,0,1,50,282.33Z"/><path class="cls-3" d="M85.65,236.24c-1.21-.22-2.11-.89-2.13-2.13a2.12,2.12,0,1,1,4.24,0C87.75,235.39,86.89,236,85.65,236.24Z"/><path class="cls-3" d="M195.1,330.45a2.19,2.19,0,0,1-2.17-2,2.12,2.12,0,1,1,4.23-.19C197.22,329.51,196.4,330.22,195.1,330.45Z"/><path class="cls-3" d="M178.92,343.57c-.27,1.14-.93,2-2.19,2a2,2,0,0,1-2.1-2.1,2,2,0,0,1,2.25-2.14C178.14,341.39,178.8,342.26,178.92,343.57Z"/><path class="cls-3" d="M162,349.14a2.19,2.19,0,0,1-2.14-2.08,2.12,2.12,0,1,1,4.23-.07C164.09,348.27,163.24,348.94,162,349.14Z"/><path class="cls-3" d="M165.88,358.87a2.18,2.18,0,0,1-2.15-2,2.12,2.12,0,1,1,4.23-.16C168,358,167.19,358.65,165.88,358.87Z"/><path class="cls-3" d="M77.28,263.08c-1.12-.32-2-1-1.94-2.25a1.94,1.94,0,0,1,2.12-2,2,2,0,0,1,2.11,2.27C79.49,262.32,78.53,262.91,77.28,263.08Z"/><path class="cls-3" d="M84.48,250.66c-1.26-.3-2.15-1-2.13-2.21a2.12,2.12,0,1,1,4.23.12C86.54,249.81,85.6,250.42,84.48,250.66Z"/><path class="cls-3" d="M65.32,256a2.21,2.21,0,0,1,2.18,2.07,2.12,2.12,0,1,1-4.23.14C63.25,257,64.14,256.3,65.32,256Z"/><path class="cls-3" d="M224.09,236c-.22,1.21-.88,2.11-2.11,2.14a2.12,2.12,0,1,1,0-4.24C223.18,233.9,223.84,234.78,224.09,236Z"/><path class="cls-3" d="M261.86,259.81c-.28,1.19-.94,2.09-2.19,2.06a2.12,2.12,0,1,1,.11-4.24A2.26,2.26,0,0,1,261.86,259.81Z"/><path class="cls-3" d="M234.6,280.29a2.22,2.22,0,0,1-2,2.21,2.12,2.12,0,1,1-.19-4.23C233.63,278.22,234.3,279.12,234.6,280.29Z"/><path class="cls-3" d="M185.44,305.56c-1.32-.23-2.2-.89-2.25-2.13a2,2,0,0,1,2-2.18,2,2,0,0,1,2.24,2.14C187.46,304.63,186.49,305.25,185.44,305.56Z"/><path class="cls-3" d="M185.83,321.14c-1.32-.24-2.22-.9-2.25-2.14a2.12,2.12,0,1,1,4.24,0C187.82,320.23,186.87,320.82,185.83,321.14Z"/><path class="cls-3" d="M181.05,360.44c-1.21-.22-2.11-.88-2.14-2.11a2.12,2.12,0,1,1,4.23-.05C183.13,359.53,182.25,360.19,181.05,360.44Z"/><path class="cls-3" d="M313.19,235.21c1.41.12,2.17.81,2.13,2.13a1.91,1.91,0,0,1-2.09,2.06,2,2,0,0,1-2.05-2.12A2,2,0,0,1,313.19,235.21Z"/><path class="cls-3" d="M175,283.72c-.18,1.19-.77,2.06-2.1,2.09a2.07,2.07,0,1,1-.12-4.14A2.11,2.11,0,0,1,175,283.72Z"/><path class="cls-3" d="M163.51,284.34a2,2,0,0,1-2.13,2.05,2.11,2.11,0,0,1,.07-4.22A2,2,0,0,1,163.51,284.34Z"/><path class="cls-3" d="M308.35,233.39c-.12,1.27-.76,2.11-2.07,2.11a2,2,0,0,1-2.11-2.06,2.09,2.09,0,0,1,4.18-.05Z"/><path class="cls-3" d="M274.33,230.73c1.2.2,2.06.8,2.06,2.14a2.07,2.07,0,1,1-4.14,0A2.1,2.1,0,0,1,274.33,230.73Z"/><path class="cls-3" d="M298.22,232.13a2,2,0,0,1-2.12,2.09,2.11,2.11,0,0,1,0-4.22A2,2,0,0,1,298.22,232.13Z"/><path class="cls-3" d="M285.48,233.67a2.09,2.09,0,0,1,.06-4.18,2,2,0,0,1,2.06,2.11C287.59,232.91,286.75,233.56,285.48,233.67Z"/><path class="cls-3" d="M109.84,227.9c1.24.22,2.11.89,2,2.19a2.11,2.11,0,0,1-4.21-.15C107.7,228.66,108.6,228,109.84,227.9Z"/><path class="cls-3" d="M130.91,231.65c-1.33-.15-2.22-.8-2.22-2.08a2.11,2.11,0,0,1,4.22-.08C133,230.8,132.06,231.43,130.91,231.65Z"/><path class="cls-3" d="M319.32,225.41c-1.24-.11-2.14-.73-2.18-2a2.11,2.11,0,0,1,4.21-.18C321.43,224.51,320.57,225.18,319.32,225.41Z"/><path class="cls-3" d="M235.14,223.17a2.09,2.09,0,0,1,4.18.24,2,2,0,0,1-2.2,2C235.82,225.32,235.21,224.45,235.14,223.17Z"/><path class="cls-3" d="M150.06,224.14c-1.2-.18-2.07-.76-2.1-2.1a2.07,2.07,0,1,1,4.14-.11A2.09,2.09,0,0,1,150.06,224.14Z"/><path class="cls-3" d="M306.22,223.55c-1.46-.07-2.27-.79-2.32-2a2.11,2.11,0,0,1,4.22-.12A2,2,0,0,1,306.22,223.55Z"/><path class="cls-3" d="M183,216.86a2.09,2.09,0,0,1-4.18-.14,2,2,0,0,1,2.15-2C182.26,214.73,182.88,215.58,183,216.86Z"/><path class="cls-3" d="M227.19,213.07c-.16,1.35-.86,2.16-2.13,2.18a2.07,2.07,0,1,1-.07-4.14C226.33,211.08,226.93,211.94,227.19,213.07Z"/><path class="cls-3" d="M254.43,213.42c-1.31-.06-2.11-.7-2.12-2a1.92,1.92,0,0,1,2-2.15,2,2,0,0,1,2.14,2A2,2,0,0,1,254.43,213.42Z"/><path class="cls-3" d="M119.71,211.87c-1.31-.07-2.11-.7-2.12-2a1.93,1.93,0,0,1,2-2.15,2,2,0,0,1,2.14,2C121.79,211,121,211.7,119.71,211.87Z"/><path class="cls-3" d="M316.73,208.19c-.18,1.2-.77,2.06-2.1,2.09a2.07,2.07,0,1,1-.11-4.14A2.09,2.09,0,0,1,316.73,208.19Z"/><path class="cls-3" d="M273.05,209.53a2.09,2.09,0,0,1,0-4.18,2,2,0,0,1,2.09,2.08C275.16,208.74,274.33,209.4,273.05,209.53Z"/><path class="cls-3" d="M293.27,204.07c1.27.12,2.11.76,2.12,2.07a2,2,0,0,1-2.06,2.11,2.09,2.09,0,0,1-.06-4.18Z"/><path class="cls-3" d="M242,205.81c-.15,1.2-.72,2.07-2.05,2.13a2.07,2.07,0,1,1-.2-4.13A2.09,2.09,0,0,1,242,205.81Z"/><path class="cls-3" d="M330.15,203.52c-.08,1.3-.73,2.1-2.06,2.09a1.93,1.93,0,0,1-2.12-2,2,2,0,0,1,2.06-2.11C329.34,201.43,330,202.25,330.15,203.52Z"/><path class="cls-3" d="M259.28,194.37a2.09,2.09,0,0,1,4.18.2,2,2,0,0,1-2.18,2C260,196.52,259.36,195.66,259.28,194.37Z"/><path class="cls-3" d="M196.5,268.69c1.39.18,2.1.91,2,2.22a1.9,1.9,0,0,1-2.17,2,2,2,0,0,1-2-2.2A2,2,0,0,1,196.5,268.69Z"/><path class="cls-3" d="M164.3,271.25c-.14,1.42-.84,2.16-2.16,2.1a1.92,1.92,0,0,1-2-2.12,2,2,0,0,1,2.15-2A2,2,0,0,1,164.3,271.25Z"/><path class="cls-3" d="M178.13,269.67c-.19,1.23-.78,2.1-2.11,2.13a2.07,2.07,0,1,1-.1-4.14A2.1,2.1,0,0,1,178.13,269.67Z"/><path class="cls-3" d="M136.48,270.26c1.29.08,2.09.72,2.08,2.06a1.92,1.92,0,0,1-2,2.12,2,2,0,0,1-2.12-2.06C134.38,271.08,135.2,270.41,136.48,270.26Z"/><path class="cls-3" d="M225.8,266.81A2.09,2.09,0,0,1,230,267a2,2,0,0,1-2.16,2C226.5,269,225.89,268.09,225.8,266.81Z"/><path class="cls-3" d="M149.79,267.77c-1.39-.24-2.18-1-2.13-2.25a2.07,2.07,0,1,1,4.14.15C151.77,267,150.85,267.54,149.79,267.77Z"/><path class="cls-3" d="M127,267.15a2,2,0,0,1-2.18-2A2.11,2.11,0,0,1,129,265,2,2,0,0,1,127,267.15Z"/><path class="cls-3" d="M211.41,266.37a2.09,2.09,0,0,1,.23-4.17,2,2,0,0,1,2,2.19C213.56,265.7,212.7,266.3,211.41,266.37Z"/><path class="cls-3" d="M198.2,264.82a2.09,2.09,0,1,1,2.18-2C200.34,264.11,199.49,264.73,198.2,264.82Z"/><path class="cls-3" d="M185.84,263.08c-1.2-.21-2.06-.81-2.06-2.14a2.07,2.07,0,1,1,4.14,0A2.1,2.1,0,0,1,185.84,263.08Z"/><path class="cls-3" d="M186.15,277.6c-1.32-.19-2.21-.85-2.17-2.14a2.11,2.11,0,0,1,4.22,0C188.22,276.79,187.3,277.4,186.15,277.6Z"/><path class="cls-3" d="M237.72,258c1.2.2,2.06.8,2.07,2.13a2.07,2.07,0,1,1-4.13.06A2.09,2.09,0,0,1,237.72,258Z"/><path class="cls-3" d="M208,279.15c-1.32-.13-2.21-.77-2.24-2A2.11,2.11,0,0,1,210,277C210.07,278.27,209.18,278.91,208,279.15Z"/><path class="cls-3" d="M140.93,258.44c-.09,1.44-.83,2.23-2.08,2.25a2.11,2.11,0,0,1,0-4.22A2,2,0,0,1,140.93,258.44Z"/><path class="cls-3" d="M149.22,282c-1.39-.17-2.12-.89-2-2.2a1.92,1.92,0,0,1,2.17-2,2,2,0,0,1,2,2.19A2,2,0,0,1,149.22,282Z"/><path class="cls-3" d="M225.52,257a2.09,2.09,0,0,1,.06-4.18,2,2,0,0,1,2.06,2.12C227.63,256.27,226.79,256.92,225.52,257Z"/><path class="cls-3" d="M120.31,252.53c1.35.14,2.16.84,2.2,2.11a2.07,2.07,0,1,1-4.14.1C118.32,253.4,119.19,252.8,120.31,252.53Z"/><path class="cls-3" d="M160.39,253.69c.08-1.3.73-2.09,2.06-2.09a1.93,1.93,0,0,1,2.12,2,2,2,0,0,1-2.06,2.11C161.2,255.78,160.53,255,160.39,253.69Z"/><path class="cls-3" d="M245.26,253c.11-1.42.8-2.18,2.12-2.15a1.92,1.92,0,0,1,2.06,2.09,2,2,0,0,1-2.11,2.06A2,2,0,0,1,245.26,253Z"/><path class="cls-3" d="M196.68,282a2.09,2.09,0,0,1,.12-4.18,2,2,0,0,1,2,2.14C198.8,281.22,198,281.85,196.68,282Z"/><path class="cls-3" d="M128,244.57a2.09,2.09,0,0,1-.12,4.17,1.94,1.94,0,0,1-2-2.13C125.87,245.3,126.72,244.66,128,244.57Z"/><path class="cls-3" d="M258.51,245.84c-.11,1.28-.76,2.12-2.06,2.12a2,2,0,0,1-2.12-2.05,2.09,2.09,0,0,1,4.18-.07Z"/><path class="cls-3" d="M202.44,245.78a2.09,2.09,0,0,1,4.17.18,1.94,1.94,0,0,1-2.16,2C203.14,247.92,202.52,247.06,202.44,245.78Z"/><path class="cls-3" d="M118.17,244.73c-.17,1.23-.75,2.1-2.08,2.15a2.07,2.07,0,1,1-.17-4.14A2.11,2.11,0,0,1,118.17,244.73Z"/><path class="cls-3" d="M239,246.45c-1.31-.24-2.18-.91-2.1-2.21a2.11,2.11,0,0,1,4.22.17C241.12,245.71,240.19,246.3,239,246.45Z"/><path class="cls-3" d="M145.42,241.73c-.22,1.19-.83,2-2.17,2a2.07,2.07,0,1,1,0-4.13A2.09,2.09,0,0,1,145.42,241.73Z"/><path class="cls-3" d="M182.52,241.35c-.16,1.32-.81,2.22-2.09,2.21a2.11,2.11,0,0,1-.07-4.22C181.67,239.29,182.29,240.2,182.52,241.35Z"/><path class="cls-3" d="M160.88,239.9a2.09,2.09,0,0,1,.07-4.18,2,2,0,0,1,2.06,2.12C163,239.14,162.16,239.79,160.88,239.9Z"/><path class="cls-4" d="M125,344.39a2.58,2.58,0,0,1,1.31-.94c2.44.66,3.37,1.92,2.41,3.34-.52.77-1.21,1.41-2.26,1.06a2.32,2.32,0,0,1-1.69-2.14A6.2,6.2,0,0,1,125,344.39Z"/><path class="cls-4" d="M183,40.78c1.49-2.11,3.18-2.1,4.63,0-.2,1.4-.84,2.64-2.33,2.63S183.18,42.17,183,40.78Z"/><path class="cls-4" d="M267.11,69.25l.95-1.48c.63.16,1.21-.39,1.89-.07a2.38,2.38,0,0,1,1.6,2,2.2,2.2,0,0,1-1.73,2.1c-1,.32-1.72-.34-2.22-1.12A6.35,6.35,0,0,1,267.11,69.25Z"/><path class="cls-4" d="M278.34,73.64c.86.12,1.45-.88,2.36-.54a2.33,2.33,0,0,1,1.75,2.07,2.19,2.19,0,0,1-1.7,2.09,1.85,1.85,0,0,1-2.22-1.07,8.24,8.24,0,0,1-.58-1.8v0c.4-.12.47-.43.41-.79Z"/><path class="cls-4" d="M187.11,44.55l.51.73a2.2,2.2,0,0,1-1.54,3.17c-1.16.35-1.89-.48-2.39-1.46-.4-.78,0-1.37.46-1.93C185,44,186,44.18,187.11,44.55Z"/><path class="cls-4" d="M132.8,148.29l1,.26c.21.82,1.1,1.5.5,2.49s-1.42,1.93-2.77,1.19c-1.18-.65-1.82-1.61-.94-3,.28-.42.54-.86.81-1.29l.49.13A.84.84,0,0,0,132.8,148.29Z"/><path class="cls-4" d="M100,99.47c1.25.33,2.19,1,2.14,2.27a2.13,2.13,0,0,1-4.25-.12C98,100.4,98.92,99.74,100,99.47Z"/><path class="cls-4" d="M274.13,103.87a2.32,2.32,0,0,1-2.17-2.13,2.13,2.13,0,1,1,4.25-.13C276.27,102.85,275.32,103.55,274.13,103.87Z"/><path class="cls-4" d="M190.62,104.37a2.33,2.33,0,0,1-2.14,2.16,2.13,2.13,0,0,1-.11-4.25C189.6,102.23,190.3,103.17,190.62,104.37Z"/><path class="cls-4" d="M255.64,108.27a2.33,2.33,0,0,1-2.15,2.15,2.13,2.13,0,1,1-.08-4.25C254.63,106.13,255.34,107.07,255.64,108.27Z"/><path class="cls-4" d="M268.11,111.38c-.29,1.24-1,2.17-2.22,2.16a2.13,2.13,0,0,1,0-4.26C267.14,109.29,267.81,110.25,268.11,111.38Z"/><path class="cls-4" d="M195.68,112.14c-.25,1.23-1,2.16-2.17,2.17a2.13,2.13,0,1,1,0-4.25C194.69,110,195.37,111,195.68,112.14Z"/><path class="cls-4" d="M99.9,114.54c-.29,1.2-1,2.13-2.22,2.11a2.13,2.13,0,1,1,0-4.25C98.94,112.41,99.64,113.35,99.9,114.54Z"/><path class="cls-4" d="M94.45,98.57c-.28,1.2-1,2.13-2.21,2.12a2.13,2.13,0,1,1,0-4.25C93.49,96.44,94.19,97.38,94.45,98.57Z"/><path class="cls-4" d="M112.36,114.54c-.29,1.2-1,2.13-2.22,2.11a2.13,2.13,0,1,1,0-4.25C111.4,112.42,112.1,113.35,112.36,114.54Z"/><path class="cls-4" d="M217.1,118a2.36,2.36,0,0,1-2.13,2.2,2.13,2.13,0,0,1-.14-4.26C216.07,115.84,216.76,116.8,217.1,118Z"/><path class="cls-4" d="M244.86,120.23c-1.24-.35-2.18-1-2.1-2.29a2.13,2.13,0,0,1,4.25.18A2.37,2.37,0,0,1,244.86,120.23Z"/><path class="cls-4" d="M42.28,270.22c-.26,1.22-1,2.15-2.17,2.17a2.13,2.13,0,0,1,0-4.25C41.29,268.11,42,269.07,42.28,270.22Z"/><path class="cls-4" d="M180.88,118.74a2.32,2.32,0,0,1-2.1,2.19,2.13,2.13,0,0,1-.18-4.25C179.84,116.61,180.54,117.55,180.88,118.74Z"/><path class="cls-4" d="M236,123.74c-1.24-.3-2.17-1-2.15-2.23a2.13,2.13,0,1,1,4.25,0C238,122.78,237.08,123.45,236,123.74Z"/><path class="cls-4" d="M224.18,120.51a2.33,2.33,0,0,1,2.19,2.1,2.13,2.13,0,1,1-4.25.18C222,121.56,223,120.85,224.18,120.51Z"/><path class="cls-4" d="M208.7,126.07c-1.24-.3-2.18-1-2.16-2.22a2.13,2.13,0,0,1,4.26,0C210.79,125.12,209.83,125.78,208.7,126.07Z"/><path class="cls-4" d="M120.22,124a2.32,2.32,0,0,1,2.19,2.11,2.13,2.13,0,1,1-4.25.17C118.09,125.06,119,124.35,120.22,124Z"/><path class="cls-4" d="M108.47,127.41c-.32,1.2-1,2.14-2.26,2.09a2.13,2.13,0,0,1,.12-4.25A2.33,2.33,0,0,1,108.47,127.41Z"/><path class="cls-4" d="M252.26,130.73c-1.19-.28-2.13-1-2.11-2.21a2.13,2.13,0,0,1,4.25,0C254.39,129.78,253.46,130.48,252.26,130.73Z"/><path class="cls-4" d="M273.16,130.9c-.3,1.2-1,2.14-2.23,2.1a2.13,2.13,0,1,1,.08-4.25A2.33,2.33,0,0,1,273.16,130.9Z"/><path class="cls-4" d="M206.27,135.41c-1.19-.35-2.14-1-2.06-2.28a2.13,2.13,0,0,1,4.25.17A2.33,2.33,0,0,1,206.27,135.41Z"/><path class="cls-4" d="M188.46,53.25a2.32,2.32,0,0,1-2.16-2.13,2.13,2.13,0,1,1,4.25-.11C190.6,52.24,189.66,52.94,188.46,53.25Z"/><path class="cls-4" d="M219.43,133.61c-.28,1.2-1,2.13-2.21,2.12a2.13,2.13,0,1,1,0-4.25C218.47,131.48,219.17,132.42,219.43,133.61Z"/><path class="cls-4" d="M235.79,134.38c-.33,1.24-1,2.19-2.27,2.13a2.13,2.13,0,1,1,.14-4.25A2.36,2.36,0,0,1,235.79,134.38Z"/><path class="cls-4" d="M40.84,261.17c-1.2-.31-2.14-1-2.1-2.24A2.13,2.13,0,0,1,43,259,2.33,2.33,0,0,1,40.84,261.17Z"/><path class="cls-4" d="M294.71,59.31c1.63.76,1.82,2.13,1.56,3.68-.86.15-1.51,1.08-2.53.6s-1.62-1.08-1.54-2A2.49,2.49,0,0,1,294.71,59.31Z"/><path class="cls-4" d="M193.73,136.34c-.28,1.19-1,2.13-2.2,2.11a2.13,2.13,0,1,1,0-4.25C192.77,134.21,193.47,135.14,193.73,136.34Z"/><path class="cls-4" d="M54.73,257c-.26,1.19-1,2.13-2.18,2.13a2.13,2.13,0,0,1,0-4.25C53.75,254.89,54.45,255.82,54.73,257Z"/><path class="cls-4" d="M101.59,58.21c1.2.27,2.13,1,2.13,2.19a2.13,2.13,0,0,1-4.25,0C99.46,59.19,100.4,58.49,101.59,58.21Z"/><path class="cls-4" d="M187.61,69.89A2.33,2.33,0,0,1,189.77,72a2.13,2.13,0,1,1-4.25.11C185.47,70.91,186.41,70.21,187.61,69.89Z"/><path class="cls-4" d="M155.57,362.51c-.24,1.2-.94,2.13-2.15,2.15a2.13,2.13,0,0,1-.08-4.25C154.57,360.38,155.27,361.32,155.57,362.51Z"/><path class="cls-4" d="M130.42,362.79c-1.2-.27-2.13-1-2.13-2.19a2.13,2.13,0,0,1,4.25,0C132.55,361.81,131.61,362.5,130.42,362.79Z"/><path class="cls-4" d="M194.67,71.83c1.24.35,2.19,1.06,2.11,2.29a2.13,2.13,0,1,1-4.25-.18A2.37,2.37,0,0,1,194.67,71.83Z"/><path class="cls-4" d="M166.48,31.56a2.33,2.33,0,0,1-2.14,2.16,2.13,2.13,0,1,1-.11-4.25C165.46,29.42,166.16,30.36,166.48,31.56Z"/><path class="cls-4" d="M294.57,67a2.32,2.32,0,0,1-2.13,2.16,2.13,2.13,0,0,1-.12-4.25C293.55,64.85,294.26,65.79,294.57,67Z"/><path class="cls-4" d="M135.49,357.33c-1.2-.25-2.13-.95-2.14-2.17a2.13,2.13,0,0,1,4.25,0C137.62,356.34,136.68,357.05,135.49,357.33Z"/><path class="cls-4" d="M166.6,41.2c-1.24-.36-2.18-1.06-2.1-2.3a2.13,2.13,0,0,1,4.25.18A2.39,2.39,0,0,1,166.6,41.2Z"/><path class="cls-4" d="M293.87,73.79a2.32,2.32,0,0,1,2.19,2.1,2.13,2.13,0,0,1-4.25.18C291.73,74.83,292.68,74.13,293.87,73.79Z"/><path class="cls-4" d="M98.34,76.73a2.32,2.32,0,0,1-2.15,2.15,2.13,2.13,0,1,1-.08-4.25C97.34,74.6,98,75.53,98.34,76.73Z"/><path class="cls-4" d="M130.16,342.26c.32-1.2,1-2.14,2.26-2.09a2.13,2.13,0,0,1-.12,4.25A2.34,2.34,0,0,1,130.16,342.26Z"/><path class="cls-4" d="M103.52,64.44a2.34,2.34,0,0,1,2.15,2.16,2.13,2.13,0,0,1-4.25.08C101.38,65.45,102.32,64.74,103.52,64.44Z"/><path class="cls-4" d="M98.34,85.35c-.3,1.19-1,2.14-2.23,2.1a2.13,2.13,0,1,1,.08-4.25A2.33,2.33,0,0,1,98.34,85.35Z"/><path class="cls-4" d="M286,65.4a2.33,2.33,0,0,1-2.13,2.19,2.13,2.13,0,1,1-.13-4.25C285,63.28,285.68,64.23,286,65.4Z"/><path class="cls-4" d="M174.84,45.47a2.33,2.33,0,0,1-2.17-2.13,2.13,2.13,0,0,1,4.25-.13C177,44.44,176,45.15,174.84,45.47Z"/><path class="cls-4" d="M108.2,45.86c-1.19-.29-2.13-1-2.11-2.22a2.13,2.13,0,1,1,4.25,0C110.33,44.9,109.4,45.6,108.2,45.86Z"/><path class="cls-4" d="M189.27,83.91c1.19.34,2.14,1,2.06,2.28a2.13,2.13,0,1,1-4.25-.18A2.33,2.33,0,0,1,189.27,83.91Z"/><path class="cls-4" d="M141.36,320.36c-1.24-.28-2.17-1-2.17-2.19a2.13,2.13,0,1,1,4.25,0C143.46,319.38,142.5,320.05,141.36,320.36Z"/><path class="cls-4" d="M120.66,312.46c1.2.25,2.13,1,2.14,2.17a2.13,2.13,0,0,1-4.25,0C118.53,313.45,119.47,312.75,120.66,312.46Z"/><path class="cls-4" d="M129.88,304.13c-.26,1.2-1,2.13-2.18,2.13a2.13,2.13,0,1,1,0-4.25C128.9,302,129.6,302.93,129.88,304.13Z"/><path class="cls-4" d="M296.13,86.15c-.32,1.2-1,2.14-2.26,2.08A2.13,2.13,0,1,1,294,84,2.33,2.33,0,0,1,296.13,86.15Z"/><path class="cls-4" d="M118.77,304a2.32,2.32,0,0,1-2.16-2.13,2.13,2.13,0,0,1,4.25-.11C120.91,303,120,303.68,118.77,304Z"/><path class="cls-4" d="M128.32,293.62c-.26,1.19-1,2.12-2.18,2.13a2.13,2.13,0,1,1,0-4.25C127.34,291.49,128,292.42,128.32,293.62Z"/><path class="cls-4" d="M193.71,44.37c1.74.78,2.13,2.12,1.62,3.85-.93.32-1.77,1.19-2.86.36a2.18,2.18,0,0,1-1.13-1.91C191.5,45.35,192.62,44.83,193.71,44.37Z"/><path class="cls-4" d="M170.39,47.94c-.35,1.25-1,2.19-2.28,2.13a2.13,2.13,0,1,1,.14-4.25A2.4,2.4,0,0,1,170.39,47.94Z"/><path class="cls-4" d="M277.84,65.06c-.31,1.24-1,2.18-2.24,2.14a2.13,2.13,0,1,1,.08-4.25C276.9,63,277.57,63.93,277.84,65.06Z"/><path class="cls-4" d="M196.64,96.87c-1.23-.27-2.16-1-2.16-2.19a2.07,2.07,0,0,1,2.11-2.14,2.1,2.1,0,0,1,2.14,2.12C198.74,95.89,197.79,96.56,196.64,96.87Z"/><path class="cls-4" d="M127.15,282c-.32,1.2-1,2.14-2.26,2.08a2.13,2.13,0,0,1,.14-4.25A2.33,2.33,0,0,1,127.15,282Z"/><path class="cls-4" d="M281.06,47.7a2.33,2.33,0,0,1,2.15,2.15,2.13,2.13,0,1,1-4.25.08C278.93,48.7,279.87,48,281.06,47.7Z"/><path class="cls-4" d="M293.58,99.21c-1.24-.3-2.18-1-2.16-2.23a2.13,2.13,0,0,1,4.25,0C295.66,98.25,294.7,98.92,293.58,99.21Z"/><path class="cls-4" d="M126,161.59a2.32,2.32,0,0,1-2.12,2.17,2.13,2.13,0,1,1-.13-4.25C125,159.45,125.66,160.39,126,161.59Z"/><path class="cls-4" d="M62.34,226.51a2.32,2.32,0,0,1-2.19-2.1,2.13,2.13,0,0,1,4.25-.18C64.48,225.47,63.53,226.17,62.34,226.51Z"/><path class="cls-4" d="M141.57,163.16c-.3,1.25-1,2.18-2.23,2.16a2.13,2.13,0,1,1,0-4.25C140.62,161.08,141.28,162,141.57,163.16Z"/><path class="cls-4" d="M288,52.37a2.33,2.33,0,0,1,2.19,2.13,2.13,2.13,0,0,1-4.25.13C285.91,53.4,286.87,52.71,288,52.37Z"/><path class="cls-4" d="M302.47,163.71c1.24.31,2.18,1,2.16,2.23a2.13,2.13,0,0,1-4.25,0C300.39,164.67,301.35,164,302.47,163.71Z"/><path class="cls-4" d="M283.67,167.1c-.28,1.19-1,2.13-2.2,2.11a2.13,2.13,0,1,1,0-4.25C282.71,165,283.41,165.9,283.67,167.1Z"/><path class="cls-4" d="M107.3,167.86c-.27,1.19-1,2.13-2.18,2.13a2.13,2.13,0,1,1,0-4.25C106.32,165.73,107,166.66,107.3,167.86Z"/><path class="cls-4" d="M199.75,50.82c1.2.31,2.14,1,2.09,2.25a2.13,2.13,0,0,1-4.25-.12A2.31,2.31,0,0,1,199.75,50.82Z"/><path class="cls-4" d="M78.48,215c-.32,1.2-1,2.14-2.26,2.08a2.13,2.13,0,0,1,.14-4.25A2.32,2.32,0,0,1,78.48,215Z"/><path class="cls-4" d="M182.44,168.21a2.33,2.33,0,0,1-2.12,2.17,2.13,2.13,0,1,1-.14-4.25C181.41,166.07,182.12,167,182.44,168.21Z"/><path class="cls-4" d="M66.49,211.23a2.32,2.32,0,0,1,2.19,2.1,2.13,2.13,0,0,1-4.25.18C64.35,212.27,65.3,211.57,66.49,211.23Z"/><path class="cls-4" d="M294.39,168c1.19.34,2.14,1.05,2.06,2.28a2.13,2.13,0,1,1-4.25-.18A2.33,2.33,0,0,1,294.39,168Z"/><path class="cls-4" d="M89.19,172.78A2.32,2.32,0,0,1,87,170.66a2.13,2.13,0,1,1,4.25-.13C91.33,171.76,90.38,172.46,89.19,172.78Z"/><path class="cls-4" d="M308.33,176.29c-1.2-.29-2.13-1-2.11-2.22a2.13,2.13,0,0,1,4.25.05C310.45,175.33,309.52,176,308.33,176.29Z"/><path class="cls-4" d="M284.56,173.85a2.33,2.33,0,0,1,2.16,2.14,2.13,2.13,0,1,1-4.25.11C282.42,174.87,283.36,174.17,284.56,173.85Z"/><path class="cls-4" d="M151.29,176.42c-.25,1.19-.95,2.12-2.17,2.14a2.13,2.13,0,0,1,0-4.25C150.3,174.28,151,175.22,151.29,176.42Z"/><path class="cls-4" d="M115.93,175.8a2.32,2.32,0,0,1,2.2,2.1,2.13,2.13,0,0,1-4.25.18C113.81,176.85,114.75,176.14,115.93,175.8Z"/><path class="cls-4" d="M83.69,182.14c-1.24-.34-2.18-1-2.12-2.27a2.07,2.07,0,0,1,2.19-2.06A2.09,2.09,0,0,1,85.82,180,2.39,2.39,0,0,1,83.69,182.14Z"/><path class="cls-4" d="M73,202.08c-.26,1.23-1,2.16-2.18,2.17a2.13,2.13,0,0,1,0-4.25C72.05,200,72.73,200.93,73,202.08Z"/><path class="cls-4" d="M82.57,203.16c-1.23-.26-2.16-1-2.17-2.18a2.13,2.13,0,0,1,4.25,0C84.67,202.17,83.72,202.85,82.57,203.16Z"/><path class="cls-4" d="M94.84,199c-.28,1.2-1,2.13-2.21,2.12a2.13,2.13,0,1,1,0-4.25C93.87,196.9,94.58,197.83,94.84,199Z"/><path class="cls-4" d="M333.51,195.49c-.26,1.2-1,2.13-2.17,2.14a2.13,2.13,0,0,1,0-4.25C332.52,193.36,333.22,194.3,333.51,195.49Z"/><path class="cls-4" d="M334.67,180.33c-.28,1.2-1,2.13-2.2,2.12a2.13,2.13,0,0,1,0-4.25C333.71,178.21,334.41,179.14,334.67,180.33Z"/><path class="cls-4" d="M104.76,196.15a2.34,2.34,0,0,1-2.17-2.13,2.13,2.13,0,1,1,4.25-.13C106.9,195.12,106,195.82,104.76,196.15Z"/><path class="cls-4" d="M181.67,53.36c-.29,1.24-1,2.18-2.21,2.16a2.13,2.13,0,1,1,0-4.25C180.71,51.27,181.38,52.23,181.67,53.36Z"/><path class="cls-4" d="M141.56,191.21c-.25,1.2-1,2.13-2.17,2.14a2.13,2.13,0,1,1,0-4.25C140.57,189.08,141.27,190,141.56,191.21Z"/><path class="cls-4" d="M77.14,192.64a2.32,2.32,0,0,1-2.19-2.1,2.13,2.13,0,1,1,4.25-.18C79.27,191.6,78.33,192.3,77.14,192.64Z"/><path class="cls-4" d="M287.68,187.08c1.25.31,2.19,1,2.15,2.24a2.13,2.13,0,0,1-4.25-.08C285.6,188,286.56,187.35,287.68,187.08Z"/><path class="cls-4" d="M206.58,188.1c-.25,1.19-1,2.12-2.17,2.14a2.13,2.13,0,0,1,0-4.25C205.59,186,206.29,186.9,206.58,188.1Z"/><path class="cls-4" d="M94.19,181.64c1.19.25,2.12,1,2.14,2.17a2.13,2.13,0,0,1-4.25,0C92.05,182.63,93,181.93,94.19,181.64Z"/><path class="cls-4" d="M300.81,183c-.3,1.24-1,2.18-2.22,2.16a2.13,2.13,0,0,1,0-4.26C299.86,180.93,300.52,181.89,300.81,183Z"/><path class="cls-4" d="M134.94,157.38c-.3,1.2-1,2.14-2.23,2.1a2.13,2.13,0,1,1,.08-4.25A2.33,2.33,0,0,1,134.94,157.38Z"/><path class="cls-4" d="M111.59,156.13c-.25,1.22-1,2.15-2.16,2.18a2.13,2.13,0,1,1-.08-4.25C110.58,154,111.26,155,111.59,156.13Z"/><path class="cls-4" d="M176.81,153.6c1.19.34,2.14,1.05,2.06,2.29a2.13,2.13,0,0,1-4.25-.18A2.33,2.33,0,0,1,176.81,153.6Z"/><path class="cls-4" d="M119.76,154.17c-.23,1.22-.93,2.15-2.14,2.19a2.13,2.13,0,0,1-.11-4.25C118.74,152.06,119.43,153,119.76,154.17Z"/><path class="cls-4" d="M168.42,153a2.33,2.33,0,0,1-2.1,2.19,2.13,2.13,0,0,1-.18-4.25C167.38,150.87,168.08,151.81,168.42,153Z"/><path class="cls-4" d="M146.62,151.09a2.33,2.33,0,0,1-2.14,2.16,2.13,2.13,0,0,1-.11-4.25C145.6,149,146.31,149.89,146.62,151.09Z"/><path class="cls-4" d="M105.35,51.77a2.34,2.34,0,0,1-2.1,2.2,2.13,2.13,0,1,1-.18-4.25C104.3,49.64,105,50.59,105.35,51.77Z"/><path class="cls-4" d="M158.69,149.92a2.33,2.33,0,0,1-2.14,2.16,2.13,2.13,0,0,1-.11-4.25C157.67,147.78,158.37,148.72,158.69,149.92Z"/><path class="cls-4" d="M57.86,244.13c-.27,1.24-1,2.17-2.19,2.17a2.13,2.13,0,1,1,0-4.25C56.88,242,57.55,243,57.86,244.13Z"/><path class="cls-4" d="M97.74,147.76c1.2.32,2.14,1,2.09,2.26a2.13,2.13,0,0,1-4.25-.12A2.34,2.34,0,0,1,97.74,147.76Z"/><path class="cls-4" d="M219.82,149.2c-.3,1.2-1,2.14-2.23,2.1a2.13,2.13,0,1,1,.07-4.25A2.33,2.33,0,0,1,219.82,149.2Z"/><path class="cls-4" d="M120.3,147c1.2.3,2.14,1,2.11,2.22a2.13,2.13,0,0,1-4.25,0C118.18,147.94,119.11,147.24,120.3,147Z"/><path class="cls-4" d="M197.37,146.21c1.2.26,2.13,1,2.13,2.18a2.13,2.13,0,0,1-4.25,0C195.24,147.19,196.17,146.49,197.37,146.21Z"/><path class="cls-4" d="M244.36,147.6c-.32,1.24-1,2.18-2.25,2.14a2.13,2.13,0,0,1,.08-4.25C243.42,145.52,244.08,146.48,244.36,147.6Z"/><path class="cls-4" d="M167.83,148.26a2.34,2.34,0,0,1-2.17-2.13,2.13,2.13,0,1,1,4.25-.13C170,147.23,169,147.93,167.83,148.26Z"/><path class="cls-4" d="M186,143.47c1.23.26,2.16,1,2.17,2.18a2.13,2.13,0,1,1-4.25,0C183.94,144.47,184.89,143.78,186,143.47Z"/><path class="cls-4" d="M200.56,141.64a2.33,2.33,0,0,1-2.19-2.11,2.13,2.13,0,0,1,4.25-.17C202.7,140.59,201.75,141.3,200.56,141.64Z"/><path class="cls-4" d="M195.29,58.91c-.34,1.2-1,2.14-2.28,2.06a2.13,2.13,0,1,1,.18-4.25A2.33,2.33,0,0,1,195.29,58.91Z"/><path class="cls-4" d="M149.9,160.33a2.34,2.34,0,0,1-2.15-2.16,2.13,2.13,0,0,1,4.25-.08C152,159.32,151.1,160,149.9,160.33Z"/><path class="cls-4" d="M59.12,230.69a2.35,2.35,0,0,1,2.17,2.13A2.13,2.13,0,0,1,57,233C57,231.72,57.92,231,59.12,230.69Z"/><path class="cls-4" d="M276.67,51.82c-.31,1.24-1,2.18-2.24,2.15a2.13,2.13,0,0,1,.08-4.26A2.38,2.38,0,0,1,276.67,51.82Z"/><path class="cls-4" d="M94.27,160.72a2.35,2.35,0,0,1-2.19-2.13,2.13,2.13,0,1,1,4.25-.13C96.39,159.69,95.44,160.38,94.27,160.72Z"/><path class="cls-4" d="M92.82,57.25a3.49,3.49,0,0,1-.27-3.69c.38-.09.76-.16,1.13-.28a2,2,0,0,1,2.19.88,1.6,1.6,0,0,1,.26,2A2.31,2.31,0,0,1,94,57.48,7.68,7.68,0,0,1,92.82,57.25Z"/><path class="cls-4" d="M159.62,163.45c-1.25-.34-2.19-1-2.13-2.27a2.13,2.13,0,1,1,4.25.14A2.38,2.38,0,0,1,159.62,163.45Z"/><path class="cls-4" d="M233.46,159.3c-.34,1.24-1,2.19-2.28,2.13a2.13,2.13,0,0,1,.14-4.26A2.39,2.39,0,0,1,233.46,159.3Z"/><path class="cls-4" d="M205.41,161.2a2.33,2.33,0,0,1-2.12,2.17,2.13,2.13,0,1,1-.14-4.25C204.38,159.06,205.09,160,205.41,161.2Z"/><path class="cls-4" d="M73,229.84c-.34,1.19-1,2.13-2.28,2.06a2.13,2.13,0,0,1,.18-4.25A2.32,2.32,0,0,1,73,229.84Z"/><path class="cls-4" d="M79.93,89.15c.55-2.92,1.74-3.46,4.12-1.86a2.26,2.26,0,0,1-1,3C81.57,91.18,80.82,89.94,79.93,89.15Z"/><path class="cls-4" d="M115.11,295.16a3.47,3.47,0,0,1-2.25-2.57c.84-1,1.41-2.45,3.16-1.65a2.06,2.06,0,0,1,1.35,1.92C117.28,294.18,116.25,294.77,115.11,295.16Z"/><path class="cls-4" d="M176,140.4c.7-.72,1.36-1.52,2.5-1.51a2.27,2.27,0,0,1,1.93,2.15,2.17,2.17,0,0,1-1.62,2C177.52,143.5,176.51,142.53,176,140.4Z"/><path class="cls-4" d="M89.6,71.66l1.53-.19c1,.57,1.9,1.24,1.64,2.54a2.24,2.24,0,0,1-1.69,1.72c-1,.27-1.59-.32-2.12-1a1.63,1.63,0,0,1,0-2.14Z"/><path class="cls-4" d="M144.34,336.82a1.94,1.94,0,0,1,2.21,1.92,2.12,2.12,0,0,1-4.24.16A1.91,1.91,0,0,1,144.34,336.82Z"/><path class="cls-4" d="M118.44,352.3c-.57-2,.09-3.26,2.1-3.79,2.3,1.68,2.49,3.2.59,4.27C120,353.39,119.31,352.55,118.44,352.3Z"/><path class="cls-4" d="M289.83,163c0,.66,0,1.32,0,2-1.14.91-2.28,1.84-3.63.33a1.8,1.8,0,0,1,0-2.72C287.59,161.09,288.7,162.12,289.83,163Z"/><path class="cls-3" d="M326.05,229.54a.6.6,0,0,0-.14.21C326,229.73,326.08,229.66,326.05,229.54Z"/><path class="cls-1" d="M88.18,77.17c-.3,0-.56-.06-.62-.42Z"/><polygon class="cls-3" points="201.28 92.72 201.17 92.8 201.3 92.74 201.28 92.72"/><path class="cls-4" d="M262.25,87.7c-5.25-.31-10-.84-14.31-2.88a24.82,24.82,0,0,1-8.6-6.16c-.37-.46-1.1-1.11-.4-1.65s.94.42,1.37.76c3.52,2.8,7.25,5.11,11.76,6a54.07,54.07,0,0,0,8.46,1.07,31.6,31.6,0,0,0,9-1.43c.6-.16,1.53-1.12,1.8.3.18,1,.8,2.06-1,2.56A67.32,67.32,0,0,1,262.25,87.7Z"/><path class="cls-4" d="M265.94,25.43a3.05,3.05,0,1,1-3.09,3.06A3,3,0,0,1,265.94,25.43Z"/><path class="cls-4" d="M252.22,49.55a3.06,3.06,0,1,1-3.06-3.1A3.06,3.06,0,0,1,252.22,49.55Z"/><path class="cls-4" d="M240.66,42.82a3.05,3.05,0,1,1,3-3.16A3,3,0,0,1,240.66,42.82Z"/><path class="cls-4" d="M266.23,42.91a3.05,3.05,0,1,1-3.08-3.08A3,3,0,0,1,266.23,42.91Z"/><path class="cls-4" d="M252.3,38.15a3.05,3.05,0,1,1,3-3.13A3,3,0,0,1,252.3,38.15Z"/><path class="cls-4" d="M282.19,29.26a3.05,3.05,0,1,1-3.09-3.05A3,3,0,0,1,282.19,29.26Z"/><path class="cls-4" d="M237,56.19a3.05,3.05,0,1,1-3,3.18A3,3,0,0,1,237,56.19Z"/><path class="cls-4" d="M283.88,42.09a3.05,3.05,0,1,1,3.25,3.06A3.79,3.79,0,0,1,283.88,42.09Z"/><path class="cls-4" d="M257.45,78.64a3.05,3.05,0,0,1,0-6.1,3.05,3.05,0,1,1,0,6.1Z"/><path class="cls-4" d="M261.79,61.34a3,3,0,1,1-2.86-3.05A3,3,0,0,1,261.79,61.34Z"/><path class="cls-4" d="M247.16,63A3,3,0,0,1,247.1,69a3,3,0,1,1,.06-6.05Z"/><path class="cls-2" d="M278.36,73.63c.06.36,0,.67-.41.79A.6.6,0,0,1,278.36,73.63Z"/><path class="cls-4" d="M254.63,92.32a.4.4,0,0,1-.16-.08s0-.08,0-.12.07.16.11.23Z"/><path class="cls-2" d="M85.78,79.84c-2.42,1.81-2.44,1.91-.44,4.39.73.9-.1,1.2-.6,1.64-2.72-.93-2.81-1.05-2.23-4C82.86,80.1,84.05,79.49,85.78,79.84Z"/><path class="cls-2" d="M163.07,41.8c-.29,0-.34-.25-.36-.49Z"/><path class="cls-2" d="M132.8,148.29a.84.84,0,0,1-.89-.21A.93.93,0,0,1,132.8,148.29Z"/></g></svg>
